<?xml version="1.0" standalone="no"?>
<!DOCTYPE svg PUBLIC "-//W3C//DTD SVG 1.1//EN" "http://www.w3.org/Graphics/SVG/1.1/DTD/svg11.dtd" >
<svg xmlns="http://www.w3.org/2000/svg" xmlns:xlink="http://www.w3.org/1999/xlink" version="1.1">
<metadata>
Created by FontForge 20170731 at Wed May 10 15:18:49 2023
 By Aleksey,,,
</metadata>
<defs>
<font id="TheSerif-Bold" horiz-adv-x="1132" >
  <font-face 
    font-family="TheSerif 7-Bold"
    font-weight="700"
    font-stretch="normal"
    units-per-em="2048"
    panose-1="2 0 7 3 0 0 0 0 0 3"
    ascent="1536"
    descent="-512"
    x-height="1018"
    cap-height="1382"
    bbox="-86 -918 3598 2407"
    underline-thickness="40"
    underline-position="-368"
    unicode-range="U+0009-FB04"
  />
<missing-glyph horiz-adv-x="1269" 
d="M627 -31q-124 0 -239 51t-198.5 136t-133.5 201t-50 241q0 169 84.5 314.5t229.5 231t315 85.5q169 0 314 -85t230 -230t85 -314q0 -128 -50 -244.5t-135 -201t-203.5 -135t-248.5 -50.5zM627 59q152 0 278.5 74.5t197.5 198.5t71 268q0 106 -42 205t-113.5 172.5
t-172 117.5t-211.5 44q-148 0 -273 -74t-196.5 -198.5t-71.5 -268.5q0 -142 72.5 -266.5t195.5 -198.5t265 -74zM676 436h-121v21q0 84 72 168l32 34q76 88 76 142q0 94 -121 94q-78 0 -163 -39v94q91 27 180 27q106 0 168.5 -44.5t62.5 -119.5q0 -70 -82 -149l-30 -29
q-74 -68 -74 -152v-47zM676 215h-121v111h121v-111z" />
    <glyph glyph-name="fi" unicode="fi" horiz-adv-x="1378" 
d="M1341 0h-573v166q87 19 145 24v625h-417v-625q58 -5 145 -24v-166h-586v166q100 19 178 24v625h-204v203h204v37q0 122 40 211.5t115 142t171.5 77.5t218.5 25q184 0 336 -38l-47 -218q-144 41 -281 41q-156 0 -223 -58t-67 -171v-49h680v-828q72 -5 165 -24v-166z" />
    <glyph glyph-name="fl" unicode="fl" horiz-adv-x="1378" 
d="M1341 0h-573v166q87 19 145 24v1098q-80 12 -159 12q-135 0 -196.5 -53.5t-61.5 -163.5v-65h241v-203h-241v-625q58 -5 145 -24v-166h-586v166q100 19 178 24v625h-204v203h204v74q0 214 132 316.5t428 102.5q177 0 383 -32v-1289q72 -5 165 -24v-166z" />
    <glyph glyph-name="ff" unicode="ff" horiz-adv-x="1441" 
d="M1493 1495l-16 -215q-63 18 -136 18q-87 0 -129.5 -47t-42.5 -147v-86h242v-203h-242v-625q79 -5 179 -24v-166h-586v166q87 19 145 24v625h-411v-625q58 -5 145 -24v-166h-586v166q100 19 178 24v625h-204v203h204v37q0 442 490 442q191 0 342 -47q98 61 256 61
q93 0 172 -16zM936 1253q-96 29 -188 29q-133 0 -192.5 -50t-59.5 -161v-53h411v74q0 88 29 161z" />
    <glyph glyph-name="ffi" unicode="ffi" horiz-adv-x="2050" 
d="M2013 0h-573v166q87 19 145 24v625h-416v-625q60 -5 146 -24v-166h-553v166q87 19 145 24v625h-411v-625q58 -5 145 -24v-166h-586v166q100 19 178 24v625h-204v203h204v37q0 442 490 442q211 0 385 -59q130 73 344 73q184 0 336 -38l-49 -218q-141 41 -279 41
q-156 0 -223.5 -58t-67.5 -171v-49h678v-828q74 -5 166 -24v-166zM944 1243q-95 39 -207 39q-126 0 -183.5 -50.5t-57.5 -160.5v-53h411v39q0 119 37 186z" />
    <glyph glyph-name="ffl" unicode="ffl" horiz-adv-x="2050" 
d="M2013 0h-573v166q87 19 145 24v1098q-71 12 -158 12q-135 0 -196.5 -53.5t-61.5 -163.5v-65h242v-203h-242v-625q60 -5 146 -24v-166h-553v166q87 19 145 24v625h-411v-625q58 -5 145 -24v-166h-586v166q100 19 178 24v625h-204v203h204v37q0 442 490 442q201 0 379 -57
q127 71 362 71q183 0 383 -32v-1289q74 -5 166 -24v-166zM936 1247q-87 35 -199 35q-126 0 -183.5 -50.5t-57.5 -160.5v-53h411v74q0 88 29 155z" />
    <glyph glyph-name="f_j" unicode="fj" horiz-adv-x="1316" 
d="M1174 -76q0 -215 -91.5 -323.5t-304.5 -108.5q-70 0 -145 21l16 223q70 -25 123 -25q79 0 109 41t30 146v917h-415v-625q66 -5 161 -24v-166h-602v166q100 19 178 24v625h-204v203h204v37q0 122 40 211.5t115 142t171.5 77.5t218.5 25q184 0 336 -38l-49 -218
q-141 41 -279 41q-156 0 -223 -58t-67 -171v-49h678v-1094z" />
    <glyph glyph-name=".notdef" horiz-adv-x="1269" 
d="M627 -31q-124 0 -239 51t-198.5 136t-133.5 201t-50 241q0 169 84.5 314.5t229.5 231t315 85.5q169 0 314 -85t230 -230t85 -314q0 -128 -50 -244.5t-135 -201t-203.5 -135t-248.5 -50.5zM627 59q152 0 278.5 74.5t197.5 198.5t71 268q0 106 -42 205t-113.5 172.5
t-172 117.5t-211.5 44q-148 0 -273 -74t-196.5 -198.5t-71.5 -268.5q0 -142 72.5 -266.5t195.5 -198.5t265 -74zM676 436h-121v21q0 84 72 168l32 34q76 88 76 142q0 94 -121 94q-78 0 -163 -39v94q91 27 180 27q106 0 168.5 -44.5t62.5 -119.5q0 -70 -82 -149l-30 -29
q-74 -68 -74 -152v-47zM676 215h-121v111h121v-111z" />
    <glyph glyph-name=".null" horiz-adv-x="0" 
 />
    <glyph glyph-name="nonmarkingreturn" horiz-adv-x="682" 
 />
    <glyph glyph-name="HT" unicode="&#x9;" horiz-adv-x="446" 
 />
    <glyph glyph-name="CR" unicode="&#xd;" horiz-adv-x="446" 
 />
    <glyph glyph-name="space" unicode=" " horiz-adv-x="446" 
 />
    <glyph glyph-name="exclam" unicode="!" horiz-adv-x="622" 
d="M465 1466l-39 -1081h-225l-43 1081h307zM309 289q67 0 113.5 -45.5t46.5 -110.5q0 -66 -46 -111t-114 -45q-67 0 -113 45t-46 111q0 65 46 110.5t113 45.5z" />
    <glyph glyph-name="quotedbl" unicode="&#x22;" horiz-adv-x="829" 
d="M352 1534l-33 -520h-196l-33 520h262zM739 1534l-34 -520h-195l-33 520h262z" />
    <glyph glyph-name="numbersign" unicode="#" horiz-adv-x="1421" 
d="M1307 360h-281l-37 -360h-227l37 360h-250l-39 -360h-225l39 360h-269v193h287l33 305h-260v193h280l35 331h225l-34 -331h251l33 331h228l-33 -331h266v-193h-287l-32 -305h260v-193zM819 553l33 305h-250l-33 -305h250z" />
    <glyph glyph-name="dollar" unicode="$" horiz-adv-x="1026" 
d="M141 10v334h178q14 -83 19 -135q48 -10 90 -10q103 0 165 37.5t62 115.5q0 46 -31 79.5t-80 56t-108.5 43.5t-119.5 50t-109 68t-80 104.5t-31 151.5q0 136 91 235.5t237 127.5v207h186v-193q122 -6 242 -31v-325h-174q-18 74 -21 135q-50 8 -82 8q-106 0 -158 -38.5
t-52 -98.5q0 -43 31.5 -75.5t81.5 -55t110 -44.5t120.5 -52.5t110.5 -70t81.5 -105t31.5 -150.5q0 -140 -94 -246t-252 -141v-250h-187v235q-125 3 -258 33z" />
    <glyph glyph-name="percent" unicode="%" horiz-adv-x="1677" 
d="M756 1090q0 -167 -104.5 -268t-250.5 -101q-150 0 -238.5 88t-88.5 254t102 264t246 98q72 0 131 -19t105.5 -58t72 -105t25.5 -153zM537 1075q0 93 -29.5 131.5t-91.5 38.5q-53 0 -87 -46t-34 -126q0 -91 29 -131.5t88 -40.5q56 0 90.5 45.5t34.5 128.5zM1415 1300
l-993 -1353l-189 135l994 1354zM1579 326q0 -167 -103 -268t-249 -101q-150 0 -239 88t-89 254t102 264.5t244 98.5q97 0 170 -33t118.5 -110t45.5 -193zM1360 311q0 92 -29 131t-90 39q-53 0 -87 -46t-34 -126q0 -91 29 -131.5t88 -40.5q55 0 89 45.5t34 128.5z" />
    <glyph glyph-name="ampersand" unicode="&#x26;" horiz-adv-x="1689" 
d="M1616 0h-326q-54 38 -200 152q-100 -82 -236 -129.5t-293 -47.5q-116 0 -206.5 32.5t-146 89.5t-84 129.5t-28.5 156.5q0 127 68 231t196 203q-101 115 -139.5 193.5t-38.5 167.5q0 144 109 242t299 98q173 0 268.5 -83t95.5 -221q0 -107 -58 -200.5t-183 -192.5
q191 -191 372 -332q81 113 95 265q-67 7 -117 18v170h528v-170q-70 -16 -149 -22q-35 -234 -164 -408q68 -55 199 -152q65 -6 139 -22v-168zM696 1196q0 54 -32 88.5t-95 34.5q-57 0 -93 -35.5t-36 -93.5q0 -84 119 -219q69 59 103 111t34 114zM899 301q-233 193 -385 358
q-145 -120 -145 -243q0 -89 64.5 -153t172.5 -64q156 0 293 102z" />
    <glyph glyph-name="quotesingle" unicode="'" horiz-adv-x="442" 
d="M352 1534l-33 -520h-196l-33 520h262z" />
    <glyph glyph-name="parenleft" unicode="(" horiz-adv-x="649" 
d="M635 -395h-252q-277 447 -277 979q0 533 279 985h244q-264 -443 -264 -975q0 -548 270 -989z" />
    <glyph glyph-name="parenright" unicode=")" horiz-adv-x="649" 
d="M549 588q0 -533 -279 -983h-247q268 438 268 983q0 540 -266 981h249q275 -455 275 -981z" />
    <glyph glyph-name="asterisk" unicode="*" horiz-adv-x="786" 
d="M717 1090l-92 -162l-174 139l32 -221h-186l33 221l-176 -139l-91 159l207 82l-207 82l93 162l174 -139l-33 221h186l-32 -221l174 139l92 -160l-207 -82z" />
    <glyph glyph-name="plus" unicode="+" horiz-adv-x="1159" 
d="M1110 418h-408v-418h-247v418h-406v219h406v416h247v-416h408v-219z" />
    <glyph glyph-name="comma" unicode="," horiz-adv-x="528" 
d="M164 -354l-109 96q69 74 98.5 131.5t24.5 99.5t-39 82q-28 34 -32.5 78t11.5 81.5t54.5 64t89.5 26.5q87 0 134 -76q57 -94 15 -235q-53 -178 -247 -348z" />
    <glyph glyph-name="hyphen" unicode="-" horiz-adv-x="684" 
d="M594 416h-504v209h504v-209z" />
    <glyph glyph-name="period" unicode="." horiz-adv-x="528" 
d="M264 311q69 0 117.5 -49.5t48.5 -118.5t-48.5 -118.5t-117.5 -49.5t-118.5 49.5t-49.5 118.5t49.5 118.5t118.5 49.5z" />
    <glyph glyph-name="slash" unicode="/" horiz-adv-x="870" 
d="M834 1382l-527 -1382h-258l529 1382h256z" />
    <glyph glyph-name="zero" unicode="0" horiz-adv-x="1245" 
d="M1161 537q0 -128 -45 -234.5t-121.5 -177t-178 -109.5t-214.5 -39q-111 0 -201.5 29.5t-162.5 91.5t-112 168t-40 248q0 128 45 234.5t121.5 177t175.5 109t209 38.5q113 0 203 -29.5t149 -80t98.5 -120t56.5 -145.5t17 -161zM899 530q0 146 -70 234t-202 88
q-120 0 -200.5 -87t-80.5 -235t69 -237.5t206 -89.5q117 0 197.5 88.5t80.5 238.5z" />
    <glyph glyph-name="one" unicode="1" horiz-adv-x="772" 
d="M721 0h-655v166q110 22 215 27v620l-209 -88l-41 209l315 119h203v-860q74 -6 172 -27v-166z" />
    <glyph glyph-name="two" unicode="2" horiz-adv-x="985" 
d="M897 0h-815v213l213 166q153 121 213.5 192t60.5 138q0 71 -41.5 111t-121.5 40q-62 0 -117 -20q-4 -45 -21 -144h-166v312q155 63 344 63q196 0 304 -88.5t108 -237.5q0 -109 -64 -204t-194 -197l-149 -119l-2 -2q111 8 448 8v-231z" />
    <glyph glyph-name="three" unicode="3" horiz-adv-x="944" 
d="M412 1067q208 0 311.5 -93.5t103.5 -248.5q0 -108 -64 -195.5t-171 -130.5v-2q127 -29 195.5 -114.5t68.5 -204.5q0 -205 -157 -334t-423 -129q-107 0 -204 23l22 229q85 -29 193 -29q133 0 209.5 55.5t76.5 159.5q0 121 -114 166.5t-318 22.5v207q203 -1 308.5 61.5
t105.5 177.5q0 78 -43.5 122t-124.5 44q-48 0 -104 -16q-2 -33 -19 -144h-166v314q150 59 314 59z" />
    <glyph glyph-name="four" unicode="4" horiz-adv-x="1140" 
d="M1100 0h-217v-190q82 -6 166 -27v-158h-603v158q95 21 179 27v190h-555l-43 213l526 844h330v-821h217v-236zM631 236v569h-2l-350 -574q110 5 352 5z" />
    <glyph glyph-name="five" unicode="5" horiz-adv-x="950" 
d="M866 117q0 -219 -173 -361.5t-439 -142.5q-88 0 -164 12l25 236q70 -17 151 -17q156 0 239 66.5t83 171.5q0 106 -87 168.5t-249 62.5q-4 0 -121 -6v746h692v-256l-444 2v-273q227 0 357 -111.5t130 -297.5z" />
    <glyph glyph-name="six" unicode="6" horiz-adv-x="1189" 
d="M1112 473q0 -218 -146 -357t-378 -139q-225 0 -353.5 152t-128.5 432q0 207 54 373t153 276.5t238 169t309 58.5q51 0 117 -4v-232q-72 10 -135 10q-176 0 -287.5 -93.5t-155.5 -262.5q-2 -8 -7.5 -29t-8.5 -36l2 -3q45 58 123.5 90.5t175.5 32.5q198 0 313 -118.5
t115 -319.5zM838 444q0 115 -57.5 178.5t-157.5 63.5q-105 0 -164.5 -65.5t-59.5 -157.5q0 -114 55.5 -188t159.5 -74q103 0 163.5 68t60.5 175z" />
    <glyph glyph-name="seven" unicode="7" horiz-adv-x="950" 
d="M901 831q-245 -567 -377 -1206h-293q149 647 383 1198q-23 -2 -340 -2q-12 -108 -24 -168h-205v400h856v-222z" />
    <glyph glyph-name="eight" unicode="8" horiz-adv-x="1140" 
d="M1049 383q0 -128 -69 -221.5t-181.5 -139t-251.5 -45.5q-214 0 -335.5 101t-121.5 268q0 66 21.5 124t62 103.5t77.5 76.5t89 65l-2 2q-232 136 -232 346q0 173 132.5 280t339.5 107q206 0 326 -94t120 -250q0 -107 -58.5 -190t-181.5 -162q56 -33 98.5 -66t83 -78.5
t62 -103t21.5 -123.5zM754 1081q0 66 -49.5 111t-137.5 45q-87 0 -136.5 -45.5t-49.5 -116.5q0 -63 48 -112t149 -105l2 -2q93 62 133.5 112t40.5 113zM772 365q0 76 -55.5 131t-167.5 112h-2q-182 -112 -182 -233q0 -80 55.5 -129t148.5 -49q89 0 146 46t57 122z" />
    <glyph glyph-name="nine" unicode="9" horiz-adv-x="1189" 
d="M1085 471q0 -404 -197.5 -631t-574.5 -227q-65 0 -135 12v240q67 -23 146 -23q181 0 290.5 81t153.5 247q3 11 9 40t9 40l-2 2q-46 -56 -120.5 -88.5t-167.5 -32.5q-192 0 -305 119t-113 315q0 220 143 362t369 142q227 0 361 -149t134 -449zM788 588q0 114 -56.5 185
t-160.5 71q-98 0 -158.5 -68.5t-60.5 -171.5q0 -116 55 -179t160 -63q101 0 161 65t60 161z" />
    <glyph glyph-name="colon" unicode=":" horiz-adv-x="563" 
d="M281 891q69 0 118.5 -49.5t49.5 -118.5t-49.5 -118.5t-118.5 -49.5q-68 0 -117 49.5t-49 118.5t49 118.5t117 49.5zM281 311q69 0 118.5 -49.5t49.5 -118.5t-49.5 -118.5t-118.5 -49.5q-68 0 -117 49.5t-49 118.5t49 118.5t117 49.5z" />
    <glyph glyph-name="semicolon" unicode=";" horiz-adv-x="563" 
d="M449 723q0 -69 -49.5 -118.5t-118.5 -49.5q-68 0 -117 49.5t-49 118.5t49 118.5t117 49.5q69 0 118.5 -49.5t49.5 -118.5zM281 305q87 0 134 -76q57 -93 16 -233q-53 -179 -249 -350l-106 96q68 74 97 131.5t24.5 99.5t-37.5 82q-29 34 -34 78t11 81.5t54.5 64t89.5 26.5
z" />
    <glyph glyph-name="less" unicode="&#x3c;" horiz-adv-x="1032" 
d="M94 514l651 608l173 -172l-488 -434l488 -428l-170 -178z" />
    <glyph glyph-name="equal" unicode="=" horiz-adv-x="1169" 
d="M1040 608h-911v211h911v-211zM1040 217h-911v211h911v-211z" />
    <glyph glyph-name="greater" unicode="&#x3e;" horiz-adv-x="1032" 
d="M938 518l-651 -608l-172 172l487 434l-487 428l170 178z" />
    <glyph glyph-name="question" unicode="?" horiz-adv-x="882" 
d="M786 1053q0 -66 -22 -123.5t-55.5 -96t-73.5 -79t-75 -73.5t-60.5 -79t-30.5 -95t16 -122h-254q-28 79 -28.5 146.5t21.5 116t55.5 90t72.5 76.5t72 67t55.5 69t22.5 76q0 92 -105.5 149.5t-285.5 65.5l32 236q158 -6 283.5 -43t202.5 -96t117 -131.5t40 -153.5zM524 133
q0 -66 -46 -111t-113 -45q-68 0 -114 45t-46 111q0 65 46.5 110.5t113.5 45.5t113 -45.5t46 -110.5z" />
    <glyph glyph-name="at" unicode="@" horiz-adv-x="1660" 
d="M1554 827q0 -239 -119 -363t-319 -124q-97 0 -145 47.5t-45 122.5h-6q-35 -71 -103.5 -120.5t-152.5 -49.5q-93 0 -142 64t-49 190q0 133 46 238t145.5 170t240.5 65q117 0 228 -35l-62 -340q-17 -95 1 -133.5t75 -38.5q186 0 186 295q0 82 -25.5 152.5t-77 128
t-140 90.5t-205.5 33q-155 0 -282.5 -72.5t-203 -206t-75.5 -301.5q0 -227 127 -355t378 -128q174 0 320 53v-193q-61 -25 -160.5 -39t-189.5 -14q-335 0 -518 177t-183 476q0 172 63 321.5t170.5 252.5t254.5 162t311 59q153 0 278.5 -46t207.5 -125.5t126.5 -185.5
t44.5 -227zM926 901q-38 10 -78 10q-57 0 -100 -46.5t-62.5 -109t-19.5 -124.5q0 -59 13 -86t42 -27q58 0 109.5 82t80.5 229z" />
    <glyph glyph-name="A" unicode="A" horiz-adv-x="1427" 
d="M1411 0h-545v166q95 18 146 22l-60 164h-503l-58 -164q51 -4 146 -22v-166h-521v166q56 17 109 20l422 1196h325l431 -1196q52 -3 108 -20v-166zM887 559l-123 340q-44 119 -64 219h-2q-30 -135 -65 -229l-119 -330h373z" />
    <glyph glyph-name="B" unicode="B" horiz-adv-x="1267" 
d="M1184 426q0 -63 -17.5 -122t-58.5 -116t-103 -99t-159 -67.5t-217 -25.5q-31 0 -168.5 2t-235.5 2h-178v166q100 19 178 24v1002q-70 5 -178 25v165h172q47 0 213.5 4.5t257.5 4.5q226 0 346.5 -88t120.5 -254q0 -102 -60 -187t-159 -123v-4q117 -25 181.5 -112
t64.5 -197zM874 1006q0 170 -227 170q-37 0 -155 -5v-360q31 -2 106 -2q136 0 206 51.5t70 145.5zM899 420q0 97 -77 143.5t-214 46.5q-87 0 -116 -2v-387q62 -8 143 -8q129 0 196.5 55.5t67.5 151.5z" />
    <glyph glyph-name="C" unicode="C" horiz-adv-x="1193" 
d="M1098 963h-201q-18 95 -27 174q-78 16 -139 16q-170 0 -264 -125t-94 -336q0 -228 101 -346.5t325 -118.5q150 0 293 58l16 -246q-180 -59 -369 -59q-327 0 -494 175t-167 492q0 228 76 394t235.5 261t390.5 95q164 0 318 -37v-397z" />
    <glyph glyph-name="D" unicode="D" horiz-adv-x="1447" 
d="M1370 715q0 -175 -55 -313t-156 -227.5t-240 -136t-309 -46.5q-81 0 -221.5 4t-163.5 4h-178v166q100 19 178 24v1002q-70 5 -178 25v165h172q47 0 203 4.5t250 4.5q698 0 698 -676zM1085 694q0 232 -102 352.5t-330 120.5q-97 0 -161 -6v-932q62 -10 143 -10
q206 0 328 119t122 356z" />
    <glyph glyph-name="E" unicode="E" horiz-adv-x="1099" 
d="M993 0h-946v166q100 19 178 24v1002q-70 5 -178 25v165h942v-348h-198q-19 122 -21 140h-278v-369h223q10 63 24 113h170v-416h-170q-11 32 -24 112h-223v-399h280q4 46 23 147h198v-362z" />
    <glyph glyph-name="F" unicode="F" horiz-adv-x="1050" 
d="M987 1028h-199q-16 96 -20 141h-276v-381h231q6 56 22 113h170v-428h-170q-17 58 -22 113h-231v-396q78 -5 178 -24v-166h-623v166q100 19 178 24v1002q-70 5 -178 25v165h940v-354z" />
    <glyph glyph-name="G" unicode="G" horiz-adv-x="1404" 
d="M1360 555q-37 -8 -115 -20v-469q-214 -86 -477 -86q-326 0 -510 181t-184 498q0 164 54 301.5t152 235.5t242 152.5t318 54.5q189 0 385 -51v-371h-205q-14 69 -25 166q-79 20 -170 20q-207 0 -335 -127t-128 -356q0 -220 115.5 -342.5t325.5 -122.5q93 0 176 25v288
q-85 6 -176 27v166h557v-170z" />
    <glyph glyph-name="H" unicode="H" horiz-adv-x="1568" 
d="M1522 0h-594v168q53 14 149 22v410h-585v-410q92 -8 149 -22v-168h-594v166q100 19 178 24v1002q-70 5 -178 25v165h594v-168q-57 -14 -149 -22v-363h585v363q-96 8 -149 22v168h594v-165q-108 -20 -179 -25v-1002q79 -5 179 -24v-166z" />
    <glyph glyph-name="I" unicode="I" horiz-adv-x="714" 
d="M670 0h-623v166q100 19 178 24v1002q-70 5 -178 25v165h623v-165q-108 -20 -178 -25v-1002q78 -5 178 -24v-166z" />
    <glyph glyph-name="J" unicode="J" horiz-adv-x="737" 
d="M692 1214q-68 -17 -129 -22v-805q0 -89 -19.5 -159.5t-61.5 -127.5t-116.5 -87.5t-177.5 -30.5q-76 0 -170 16v229q55 -20 127 -20q77 0 114.5 41.5t37.5 148.5v795q-70 5 -178 25v165h573v-168z" />
    <glyph glyph-name="K" unicode="K" horiz-adv-x="1425" 
d="M1386 0h-583v168q49 11 102 18l-413 496v-492q84 -8 135 -22v-168h-580v166q100 19 178 24v1002q-70 5 -178 25v165h580v-168q-51 -14 -135 -22v-461l409 465q-47 3 -106 18v168h561v-168q-72 -14 -127 -20l-438 -475l466 -531q56 -6 129 -20v-168z" />
    <glyph glyph-name="L" unicode="L" horiz-adv-x="1003" 
d="M977 0h-930v166q100 19 178 24v1002q-70 5 -178 25v165h623v-165q-108 -20 -178 -25v-973h264q4 47 24 170h197v-389z" />
    <glyph glyph-name="M" unicode="M" horiz-adv-x="1918" 
d="M1274 1382h520v-165q-108 -20 -178 -25l168 -1006q47 -3 106 -18v-168h-532v166q89 17 143 22l-80 519q-35 220 -41 288h-4q-41 -191 -76 -301l-221 -694h-266l-209 641q-64 186 -90 354h-4q-4 -46 -10 -96.5t-14.5 -111t-12.5 -91.5l-67 -508q54 -5 143 -22v-166h-518
v168q59 15 106 18l166 1006q-70 5 -178 25v165h524l232 -710q47 -141 75 -291h5q25 132 75 287z" />
    <glyph glyph-name="N" unicode="N" horiz-adv-x="1558" 
d="M1511 1214q-55 -14 -129 -24v-1190h-342l-422 702q-70 116 -147 295q12 -179 12 -804q75 -6 148 -25v-168h-584v166q125 23 178 27v999q-70 5 -178 25v165h522l416 -698q58 -94 154 -291q-15 194 -15 797q-75 6 -139 24v168h526v-168z" />
    <glyph glyph-name="O" unicode="O" horiz-adv-x="1439" 
d="M1372 711q0 -167 -53 -306.5t-144.5 -232.5t-214.5 -144t-264 -51q-310 0 -469 184t-159 513q0 167 53.5 306t145 231.5t214.5 143t262 50.5q140 0 254 -42.5t198.5 -126.5t130.5 -217.5t46 -307.5zM1087 690q0 230 -95 352.5t-273 122.5q-73 0 -138 -29.5t-116.5 -85
t-82 -145.5t-30.5 -203q0 -227 91 -355t272 -128q70 0 134.5 27.5t118.5 82.5t86.5 148t32.5 213z" />
    <glyph glyph-name="P" unicode="P" horiz-adv-x="1153" 
d="M1120 963q0 -100 -37.5 -188t-106 -152.5t-171 -102t-225.5 -37.5q-55 0 -88 4v-297q78 -5 178 -24v-166h-623v166q100 19 178 24v1002q-70 5 -178 25v165h160q23 0 165.5 4.5t223.5 4.5q252 0 388 -112t136 -316zM844 946q0 108 -64 168t-196 60q-46 0 -92 -3v-460
q41 -6 77 -6q124 2 199.5 66t75.5 175z" />
    <glyph glyph-name="Q" unicode="Q" horiz-adv-x="1439" 
d="M1372 711q0 -167 -53 -306.5t-144.5 -232.5t-214.5 -144t-264 -51q-310 0 -469 184t-159 513q0 167 53.5 306t145 231.5t214.5 143t262 50.5q140 0 254 -42.5t198.5 -126.5t130.5 -217.5t46 -307.5zM1436 -416q-104 -16 -200 -13t-161.5 18.5t-143 30.5t-145.5 22.5
t-168 -4.5v235q99 12 190.5 6t154 -21t140.5 -29.5t150.5 -19.5t182.5 9v-234zM1087 690q0 230 -95 352.5t-273 122.5q-73 0 -138 -29.5t-116.5 -85t-82 -145.5t-30.5 -203q0 -227 91 -355t272 -128q70 0 134.5 27.5t118.5 82.5t86.5 148t32.5 213z" />
    <glyph glyph-name="R" unicode="R" horiz-adv-x="1255" 
d="M1217 0h-351l-338 571h-36v-381q75 -8 124 -22v-168h-569v166q100 19 178 24v1002q-70 5 -178 25v165h160q12 0 164 4.5t252 4.5q501 0 501 -390q0 -143 -88.5 -243t-236.5 -131q39 -51 69 -101l213 -333q9 -1 136 -23v-170zM844 975q0 199 -250 199q-55 0 -102 -7v-399
q36 -4 94 -4q121 0 189.5 57t68.5 154z" />
    <glyph glyph-name="S" unicode="S" horiz-adv-x="1036" 
d="M963 428q0 -198 -147 -324.5t-392 -126.5q-172 0 -315 35v369h202q19 -109 23 -162q48 -10 96 -10q113 0 180.5 45.5t67.5 136.5q0 42 -20.5 74.5t-55 54.5t-79.5 40.5t-94.5 37t-99 39t-94.5 51.5t-79.5 70t-55 98t-20.5 133q0 188 138 302t380 114q142 0 291 -31v-354
h-203q-16 83 -22 158q-48 6 -72 6q-113 0 -171.5 -45.5t-58.5 -122.5q0 -39 20.5 -70.5t55.5 -54t80 -41.5t94.5 -38.5t99.5 -41t95 -52.5t80 -69t55.5 -95t20.5 -126z" />
    <glyph glyph-name="T" unicode="T" horiz-adv-x="1202" 
d="M1167 1382v-389h-196q-23 145 -25 170h-213v-973q78 -5 178 -24v-166h-622v166q100 19 178 24v973h-211q-2 -25 -25 -170h-196v389h1132z" />
    <glyph glyph-name="U" unicode="U" horiz-adv-x="1456" 
d="M1409 1214q-64 -16 -127 -22v-662q0 -553 -571 -553q-91 0 -166.5 14t-130.5 39t-96.5 61.5t-68 78.5t-43.5 94t-23.5 103.5t-6.5 111.5v713q-66 6 -129 22v168h543v-168q-55 -14 -148 -22v-696q0 -70 12.5 -121t43.5 -92.5t88.5 -62.5t140.5 -21q156 0 224.5 73
t68.5 248v672q-94 8 -148 22v168h537v-168z" />
    <glyph glyph-name="V" unicode="V" horiz-adv-x="1386" 
d="M412 1194l204 -621q52 -151 82 -270h2q40 164 84 287l207 604q-36 3 -143 23v165h522v-168q-59 -15 -106 -18l-418 -1196h-309l-414 1196q-48 3 -107 18v168h543v-165q-113 -20 -147 -23z" />
    <glyph glyph-name="W" unicode="W" horiz-adv-x="1996" 
d="M1980 1214q-64 -15 -108 -18l-301 -1196h-326l-203 762q-25 87 -53 285h-2q-15 -142 -49 -279l-203 -768h-309l-301 1196q-50 3 -109 18v168h537v-165q-113 -20 -147 -23l143 -576q27 -107 49 -280h2q25 166 53 272l211 772h283l215 -768q36 -134 53 -268h2
q29 173 51 264l142 584q-31 3 -146 23v165h516v-168z" />
    <glyph glyph-name="X" unicode="X" horiz-adv-x="1441" 
d="M1421 0h-598v168q68 16 111 18l-236 342l-239 -342q40 -2 112 -18v-168h-551v168q79 15 130 18l397 516l-379 494q-47 2 -127 18v168h596v-168q-72 -16 -117 -18l219 -317l228 317q-42 2 -115 18v168h547v-168q-73 -14 -129 -20l-375 -487l401 -521q51 -3 125 -18v-168z
" />
    <glyph glyph-name="Y" unicode="Y" horiz-adv-x="1251" 
d="M1237 1214q-64 -15 -109 -18l-372 -725v-281q78 -5 178 -24v-166h-623v166q100 19 178 24v281l-366 725q-50 3 -107 18v168h527v-168q-52 -13 -121 -20l125 -272q59 -129 82 -191h6q29 72 88 197l127 266q-75 7 -123 20v168h510v-168z" />
    <glyph glyph-name="Z" unicode="Z" horiz-adv-x="1099" 
d="M1018 0h-934v205l528 827q51 83 88 131q-98 -4 -202 -4h-176q-7 -73 -21 -153h-205v376h918v-213l-555 -847q-12 -17 -32.5 -48.5t-31.5 -48.5q33 4 223 4h177q3 21 6.5 47t8 60t7.5 55h201v-391z" />
    <glyph glyph-name="bracketleft" unicode="[" horiz-adv-x="671" 
d="M598 -420h-453v2011h453v-207h-207v-1593h207v-211z" />
    <glyph glyph-name="backslash" unicode="\" horiz-adv-x="847" 
d="M819 0h-252l-534 1382h246z" />
    <glyph glyph-name="bracketright" unicode="]" horiz-adv-x="671" 
d="M524 -420h-450v211h205v1593h-205v207h450v-2011z" />
    <glyph glyph-name="asciicircum" unicode="^" horiz-adv-x="1095" 
d="M989 784l-188 -94l-269 506l-256 -506l-174 92l334 600h203z" />
    <glyph glyph-name="underscore" unicode="_" horiz-adv-x="1024" 
d="M1024 -516h-1024v211h1024v-211z" />
    <glyph glyph-name="grave" unicode="`" horiz-adv-x="765" 
d="M639 1303l-92 -152l-377 195l113 182z" />
    <glyph glyph-name="a" unicode="a" 
d="M1096 14q-192 -23 -410 -16q0 108 10 174l-2 2q-37 -87 -124.5 -140.5t-200.5 -53.5q-137 0 -214 72t-77 196q0 177 159.5 271t428.5 97v62q0 85 -41.5 124.5t-145.5 39.5q-75 0 -143 -19q-3 -33 -21 -133h-165v299q181 53 356 53q121 0 204.5 -23.5t130.5 -71.5
t67 -110.5t20 -150.5v-485q95 -15 168 -21v-166zM666 424v22q-338 0 -338 -159q0 -50 32 -79.5t89 -29.5q94 0 155.5 74t61.5 172z" />
    <glyph glyph-name="b" unicode="b" horiz-adv-x="1165" 
d="M424 1497v-440q0 -114 -16 -199h2q38 84 120 132t187 48q182 0 278.5 -125t96.5 -352q0 -263 -146.5 -422t-404.5 -159q-205 0 -379 49v1265q-94 15 -178 21v164q199 24 440 18zM817 535q0 286 -174 286q-99 0 -159 -96.5t-60 -230.5v-287q59 -19 137 -19q118 0 187 83.5
t69 263.5z" />
    <glyph glyph-name="c" unicode="c" horiz-adv-x="915" 
d="M850 29q-146 -47 -293 -47q-231 0 -359 121t-128 372q0 121 32 221.5t95.5 177.5t168 119.5t240.5 42.5q125 0 238 -35v-327h-168q-19 119 -21 135q-31 10 -84 10q-106 0 -167.5 -82.5t-61.5 -226.5q0 -147 63.5 -224t210.5 -77q120 0 215 45z" />
    <glyph glyph-name="d" unicode="d" horiz-adv-x="1204" 
d="M1167 16q-184 -25 -411 -18q0 90 12 172h-4q-41 -88 -125 -140.5t-197 -52.5q-182 0 -276 127t-94 351q0 262 144 421.5t394 159.5q69 0 129 -8v266q-94 15 -178 21v164q197 24 438 18v-1296q92 -15 168 -21v-164zM739 528v285q-75 16 -137 16q-120 0 -188 -83t-68 -263
q0 -288 174 -288q99 0 159 98t60 235z" />
    <glyph glyph-name="e" unicode="e" horiz-adv-x="1052" 
d="M975 586q0 -62 -8 -119h-631q-3 -283 280 -283q160 0 297 64l25 -203q-165 -65 -365 -65q-503 0 -503 520q0 240 127 390t350 150q108 0 191.5 -35t134.5 -97.5t76.5 -143.5t25.5 -178zM715 645q3 95 -44.5 149t-131.5 54q-81 0 -134.5 -55t-64.5 -148h375z" />
    <glyph glyph-name="f" unicode="f" horiz-adv-x="768" 
d="M821 1495l-18 -215q-63 18 -135 18q-87 0 -129.5 -47t-42.5 -147v-86h241v-203h-241v-625q78 -5 178 -24v-166h-619v166q100 19 178 24v625h-204v203h204v82q0 207 102.5 309t311.5 102q93 0 174 -16z" />
    <glyph glyph-name="g" unicode="g" horiz-adv-x="1136" 
d="M1069 -111q0 -170 -156 -288.5t-405 -118.5q-206 0 -321 77t-115 224q0 77 45 145.5t110 100.5q-100 51 -100 155q0 58 33 108t86 73q-70 39 -110 112.5t-40 171.5q0 81 29.5 151t85.5 124t145 85t201 31q92 0 178 -22h344v-205h-137q51 -51 51 -135q0 -170 -116 -271.5
t-332 -101.5q-55 0 -94 8q-48 -20 -48 -65q0 -35 34.5 -49.5t123.5 -14.5h158q167 0 258.5 -75.5t91.5 -219.5zM743 664q0 87 -51 136.5t-145 49.5q-93 0 -147 -50.5t-54 -133.5q0 -87 52.5 -135t148.5 -48q90 0 143 48t53 133zM809 -145q0 55 -40.5 88.5t-121.5 33.5h-178
h-49q-42 -25 -66 -63.5t-24 -81.5q0 -70 59 -109.5t158 -39.5q124 0 193 47.5t69 124.5z" />
    <glyph glyph-name="h" unicode="h" horiz-adv-x="1302" 
d="M1268 0h-428v651q0 85 -28.5 127.5t-98.5 42.5q-99 0 -167.5 -97t-68.5 -232v-302q94 -8 150 -22v-168h-590v166q100 19 178 24v1104q-94 15 -178 21v164q199 24 440 18v-438q0 -131 -18 -207l4 -2q45 88 131.5 139t202.5 51q83 0 143.5 -25t94.5 -71t49.5 -102.5
t15.5 -126.5v-525q78 -6 168 -24v-166z" />
    <glyph glyph-name="i" unicode="i" horiz-adv-x="696" 
d="M524 1309q0 -66 -48 -113t-116 -47q-67 0 -114 47t-47 113q0 65 47 111t114 46q68 0 116 -45.5t48 -111.5zM657 0h-604v166q100 19 178 24v627q-94 15 -178 21v163q203 25 439 19v-830q72 -5 165 -24v-166z" />
    <glyph glyph-name="j" unicode="j" horiz-adv-x="632" 
d="M524 1309q0 -66 -48 -113t-116 -47q-67 0 -115 47t-48 113q0 65 48 111t115 46q68 0 116 -45.5t48 -111.5zM492 -76q0 -214 -94.5 -323t-309.5 -109q-77 0 -151 19l16 223q61 -23 129 -23q82 0 114.5 41.5t32.5 145.5v919q-94 15 -178 21v163q206 25 441 19v-1096z" />
    <glyph glyph-name="k" unicode="k" horiz-adv-x="1230" 
d="M1192 0h-340l-375 516v-326q83 -7 129 -22v-168h-569v166q100 19 178 24v1104q-94 15 -178 21v164q199 24 440 18v-940l234 274q-60 6 -97 19v168h549v-168q-66 -17 -135 -23l-258 -278l277 -356q53 -5 145 -23v-170z" />
    <glyph glyph-name="l" unicode="l" horiz-adv-x="679" 
d="M477 190q72 -5 166 -24v-166h-606v166q100 19 178 24v1104q-94 15 -178 21v164q199 24 440 18v-1307z" />
    <glyph glyph-name="m" unicode="m" horiz-adv-x="1923" 
d="M1458 0v645q0 88 -26.5 132t-94.5 44q-90 0 -161.5 -95t-71.5 -239v-297q94 -7 149 -22v-168h-407v645q0 41 -5 70.5t-18 54.5t-37.5 38t-60.5 13q-93 0 -163 -97t-70 -237v-297q96 -8 149 -22v-168h-588v166q100 19 178 24v627q-94 15 -178 21v163q205 25 424 19
q0 -96 -12 -184h2q46 95 134.5 149.5t201.5 54.5q123 0 190.5 -58.5t89.5 -145.5q40 85 126 144.5t206 59.5q305 0 305 -340v-510q72 -5 166 -24v-166h-428z" />
    <glyph glyph-name="n" unicode="n" horiz-adv-x="1316" 
d="M854 0v651q0 84 -28 127t-97 43q-99 0 -168 -97t-69 -232v-302q96 -8 149 -22v-168h-588v166q100 19 178 24v627q-94 15 -178 21v163q205 25 424 19q0 -108 -14 -182l2 -2q47 94 136 149t210 55q83 0 143.5 -25t94.5 -71t49.5 -102.5t15.5 -126.5v-525q75 -5 168 -24
v-166h-428z" />
    <glyph glyph-name="o" unicode="o" 
d="M1063 528q0 -240 -146 -394t-374 -154q-226 0 -350.5 125t-124.5 387q0 239 144.5 392.5t375.5 153.5q224 0 349.5 -127.5t125.5 -382.5zM793 514q0 303 -224 303q-96 0 -163.5 -76t-67.5 -223q0 -315 227 -315q101 0 164.5 80.5t63.5 230.5z" />
    <glyph glyph-name="p" unicode="p" horiz-adv-x="1220" 
d="M1153 563q0 -270 -138.5 -423.5t-398.5 -153.5q-74 0 -131 8v-297q71 -5 179 -25v-166h-617v166q108 20 178 25v1120q-94 15 -178 21v163q205 25 422 19q0 -92 -12 -172h4q44 91 125 140.5t194 49.5q180 0 276.5 -124t96.5 -351zM879 535q0 288 -174 288
q-99 0 -159.5 -98.5t-60.5 -235.5v-282q65 -19 138 -19q120 0 188 83.5t68 263.5z" />
    <glyph glyph-name="q" unicode="q" horiz-adv-x="1144" 
d="M1174 -494h-611v166q108 20 178 25v270q0 115 15 197l-4 2q-40 -88 -120 -138.5t-181 -50.5q-184 0 -280.5 122t-96.5 356q0 264 146 422.5t409 158.5q187 0 372 -30v-1309q62 -4 173 -25v-166zM741 532v283q-75 14 -137 14q-120 0 -188 -83t-68 -263q0 -288 172 -288
q99 0 160 99t61 238z" />
    <glyph glyph-name="r" unicode="r" horiz-adv-x="839" 
d="M807 1040l-12 -258q-156 29 -229.5 -61.5t-73.5 -304.5v-226q78 -5 178 -24v-166h-617v166q100 19 178 24v627q-94 15 -178 21v163q205 25 424 19q0 -99 -18 -207h4q93 245 344 227z" />
    <glyph glyph-name="s" unicode="s" horiz-adv-x="899" 
d="M825 328q0 -152 -125.5 -250t-334.5 -98q-136 0 -267 28v305h166q14 -59 21 -133q48 -10 102 -10q79 0 127.5 32.5t48.5 88.5q0 36 -27 61.5t-70.5 41.5t-95.5 31t-104.5 36.5t-96 51t-70.5 80.5t-27 120q0 144 114 234.5t324 90.5q126 0 264 -30v-293h-166
q-13 52 -20 131q-48 10 -92 10q-81 0 -121.5 -30t-40.5 -83q0 -36 27 -62.5t70.5 -43t95.5 -32.5t104.5 -37t96 -49.5t70.5 -77t27 -113.5z" />
    <glyph glyph-name="t" unicode="t" horiz-adv-x="768" 
d="M696 6q-107 -26 -213 -26q-168 0 -231.5 69.5t-63.5 249.5v516h-176v203h174v313l263 70v-383h247v-203h-247v-446q0 -97 26 -132.5t94 -35.5t127 16v-211z" />
    <glyph glyph-name="u" unicode="u" horiz-adv-x="1292" 
d="M1255 14q-192 -23 -409 -16q0 116 12 182l-4 2q-48 -94 -137 -149.5t-209 -55.5q-83 0 -143.5 25.5t-94.5 71.5t-49.5 102.5t-15.5 126.5v514q-95 15 -168 21v166q189 22 428 16v-653q0 -84 28 -127t97 -43q99 0 168 97t69 232v293q-108 16 -149 19v168q201 20 412 14
v-819q97 -16 165 -21v-166z" />
    <glyph glyph-name="v" unicode="v" horiz-adv-x="1157" 
d="M1141 850q-47 -14 -109 -21l-289 -829h-331l-285 829q-60 7 -111 21v168h494v-168q-59 -14 -107 -19l111 -323q49 -148 70 -242h4q34 154 63 238l113 327q-45 5 -109 19v168h486v-168z" />
    <glyph glyph-name="w" unicode="w" horiz-adv-x="1736" 
d="M1720 850q-53 -15 -110 -21l-254 -829h-291l-147 453q-25 75 -60 227h-2q-15 -77 -68 -256l-129 -424h-286l-246 829q-59 6 -111 21v168h488v-168q-59 -14 -103 -19l80 -292q7 -27 30 -110t32 -126h2q22 120 71 270l140 445h241l140 -445q40 -124 73 -270h4q19 90 56 219
l90 309q-53 6 -103 19v168h463v-168z" />
    <glyph glyph-name="x" unicode="x" horiz-adv-x="1110" 
d="M1090 0h-369l-178 338l-178 -338h-345v170q109 21 154 25l211 319l-197 309q-40 3 -155 25v170h354l176 -330l178 330h334v-170q-109 -21 -155 -25l-187 -307l201 -321q49 -4 156 -25v-170z" />
    <glyph glyph-name="y" unicode="y" horiz-adv-x="1159" 
d="M1143 850q-53 -15 -111 -21l-323 -935q-78 -228 -182.5 -317t-282.5 -89q-80 0 -158 16l14 226q76 -23 146 -23t118.5 43t86.5 152l34 98h-75l-283 829q-63 6 -111 21v168h490v-168q-59 -14 -103 -19l103 -290q37 -106 80 -273h2q39 162 88 301l90 262q-43 5 -102 19v168
h479v-168z" />
    <glyph glyph-name="z" unicode="z" horiz-adv-x="937" 
d="M856 0h-778v193l473 632q-78 -4 -182 -4h-93q-8 -58 -20 -125h-172v322h760v-193l-465 -618q43 2 182 2h105q7 70 20 129h170v-338z" />
    <glyph glyph-name="braceleft" unicode="{" horiz-adv-x="741" 
d="M676 -420h-43q-198 0 -285.5 109t-87.5 348v276q0 123 -49 173.5t-156 56.5v196q110 6 157.5 52.5t47.5 169.5v178q0 230 87.5 341t285.5 111h43v-207q-101 0 -136.5 -47.5t-35.5 -193.5v-176q0 -156 -49 -232t-140 -92v-2q189 -30 189 -332v-274q0 -101 16 -152.5
t51.5 -71.5t104.5 -20v-211z" />
    <glyph glyph-name="bar" unicode="|" horiz-adv-x="565" 
d="M383 -512h-209v2048h209v-2048z" />
    <glyph glyph-name="braceright" unicode="}" horiz-adv-x="737" 
d="M692 543q-106 -6 -155.5 -56.5t-49.5 -173.5v-276q0 -240 -86.5 -348.5t-283.5 -108.5h-45v211q102 0 138 48.5t36 195.5v274q0 303 188 332v2q-188 26 -188 318v182q0 145 -36 193t-138 48v207h45q198 0 284 -111t86 -341v-172q0 -128 47 -175t158 -53v-196z" />
    <glyph glyph-name="asciitilde" unicode="~" horiz-adv-x="1173" 
d="M1090 526q-55 -64 -133.5 -100.5t-168.5 -36.5q-61 0 -124 18t-107 39.5t-99 39.5t-102 18q-108 0 -196 -84l-80 194q132 119 297 119q65 0 126 -18t100.5 -39.5t91 -39.5t100.5 -18q104 0 213 97z" />
    <glyph glyph-name="nbspace" unicode="&#xa0;" horiz-adv-x="819" 
 />
    <glyph glyph-name="exclamdown" unicode="&#xa1;" horiz-adv-x="622" 
d="M463 885q0 -65 -46.5 -109.5t-113.5 -44.5t-113.5 44.5t-46.5 109.5q0 66 46 110.5t114 44.5t114 -44.5t46 -110.5zM444 -449h-286l28 1084h226z" />
    <glyph glyph-name="cent" unicode="&#xa2;" horiz-adv-x="978" 
d="M653 1063q101 0 217 -33v-330h-165q-14 78 -23 144q-52 10 -94 10q-105 2 -170.5 -76t-65.5 -213q0 -272 275 -272q123 0 237 49l17 -229q-132 -38 -228 -45v-207h-196v211q-183 21 -279 147.5t-96 331.5q0 196 100 332.5t275 169.5v190h196v-180z" />
    <glyph glyph-name="sterling" unicode="&#xa3;" horiz-adv-x="1087" 
d="M987 0h-878v201q54 32 89.5 60.5t64.5 64t42.5 78.5t13.5 96q0 9 -1.5 27.5t-5 53.5t-5.5 62h-190v201h170q-2 17 -9 67.5t-10.5 86t-3.5 63.5q0 202 100.5 295.5t307.5 93.5q118 0 241 -29v-323h-165q-19 89 -23 133q-32 4 -51 4q-71 0 -108.5 -44t-37.5 -128
q0 -43 21 -219h258v-201h-240q8 -52 8 -111q0 -98 -36.5 -172.5t-112.5 -142.5q105 6 133 6h209q5 67 25 164h194v-387z" />
    <glyph glyph-name="currency" unicode="&#xa4;" horiz-adv-x="1112" 
d="M1038 84l-198 -145l-158 211q-74 -33 -152 -33q-62 0 -112 18l-142 -194l-202 143l139 174q-70 99 -70 252q0 148 80 252l-149 188l200 142l146 -199q68 27 147 27q72 0 131 -23l144 197l196 -146l-143 -182q59 -88 59 -236q0 -142 -75 -243zM725 526q0 203 -178 203
q-73 0 -123.5 -55.5t-50.5 -153.5q0 -97 43.5 -155t132.5 -58q74 0 125 56t51 163z" />
    <glyph glyph-name="yen" unicode="&#xa5;" horiz-adv-x="1243" 
d="M1225 1214q-59 -15 -107 -18l-284 -520h247v-146h-329v-118h329v-148h-329v-90q78 -5 178 -24v-150h-621v150q100 19 178 24v90h-329v148h329v118h-329v146h250l-281 520q-50 3 -107 18v168h515v-168q-46 -13 -123 -20l116 -240q15 -30 48.5 -93.5t48.5 -94.5h4
q15 35 53 106t51 97l115 225q-74 7 -125 20v168h502v-168z" />
    <glyph glyph-name="brokenbar" unicode="&#xa6;" horiz-adv-x="565" 
d="M383 782h-209v754h209v-754zM383 -512h-209v774h209v-774z" />
    <glyph glyph-name="section" unicode="&#xa7;" horiz-adv-x="1044" 
d="M920 494q0 -86 -40 -164.5t-102 -126.5q68 -90 68 -207q0 -50 -15 -97.5t-50.5 -92.5t-87.5 -79t-132 -54.5t-178 -20.5q-74 0 -164 16l17 228q80 -25 153 -25q90 0 133 36.5t43 94.5q0 37 -24.5 77t-63.5 78.5t-86.5 80t-95 90.5t-86.5 101.5t-63.5 120t-24.5 140.5
q0 90 39 168t102 125q-63 81 -63 199q0 69 25 129t76 109.5t138 78.5t201 29q87 0 149 -15l-14 -219q-71 19 -141 19q-156 0 -156 -123q0 -35 24.5 -74.5t63.5 -78.5t86.5 -82t94.5 -93.5t86 -104.5t63.5 -122.5t24.5 -140.5zM684 461q0 38 -13 73t-43 73.5t-58 68.5t-78 81
t-84 89q-50 -40 -50 -123q0 -75 59 -153t218 -230q22 19 35.5 52.5t13.5 68.5z" />
    <glyph glyph-name="dieresis" unicode="&#xa8;" horiz-adv-x="1118" 
d="M889 1327q0 -59 -41.5 -100t-99.5 -41q-59 0 -100.5 41.5t-41.5 99.5q0 60 41.5 100.5t100.5 40.5t100 -40.5t41 -100.5zM475 1327q0 -59 -41.5 -100t-99.5 -41t-99.5 41t-41.5 100q0 60 41 100.5t100 40.5t100 -40.5t41 -100.5z" />
    <glyph glyph-name="copyright" unicode="&#xa9;" horiz-adv-x="1560" 
d="M778 1382q190 0 351.5 -93t255.5 -254t94 -351t-94 -351.5t-255.5 -255t-351.5 -93.5q-145 0 -275 55t-223 148.5t-147.5 222.5t-54.5 272t55.5 272.5t149 223t223 149t272.5 55.5zM778 1188q-209 0 -356.5 -147.5t-147.5 -356.5q0 -137 67.5 -253.5t183.5 -184.5
t253 -68q209 0 355.5 147.5t146.5 356.5q0 137 -67 253.5t-182.5 184.5t-252.5 68zM985 350q-112 -28 -201 -28q-178 0 -261 92.5t-83 255.5q0 78 21 144t64 120.5t116.5 85.5t171.5 31q68 0 164 -21v-256h-129q-1 5 -19 105q-24 4 -45 4q-137 0 -137 -195
q0 -101 40.5 -147.5t133.5 -46.5q75 0 152 26z" />
    <glyph glyph-name="ordfeminine" unicode="&#xaa;" horiz-adv-x="876" 
d="M842 680q-138 -18 -332 -14q0 59 10 108h-4q-24 -52 -86 -87.5t-135 -35.5q-106 0 -161.5 53t-55.5 140q0 128 113.5 195.5t306.5 70.5v33q0 46 -27.5 73t-99.5 27q-38 0 -92 -12q-8 -58 -15 -92h-135v223q150 41 262 41q91 0 154 -18t98.5 -53t50.5 -80.5t15 -106.5
v-301q98 -15 133 -17v-147zM498 956v21q-109 0 -163 -24.5t-54 -78.5q0 -30 19.5 -47.5t55.5 -17.5q64 0 103 49t39 98z" />
    <glyph glyph-name="guillemotleft" unicode="&#xab;" horiz-adv-x="1093" 
d="M514 815l-178 -307l180 -299l-211 -98l-219 397l225 401zM975 803l-193 -295l195 -289l-205 -98l-242 387l248 393z" />
    <glyph glyph-name="logicalnot" unicode="&#xac;" horiz-adv-x="1142" 
d="M1036 125h-231v305h-735v213h966v-518z" />
    <glyph glyph-name="softhyphen" unicode="&#xad;" horiz-adv-x="684" 
d="M594 416h-504v209h504v-209z" />
    <glyph glyph-name="registered" unicode="&#xae;" horiz-adv-x="1155" 
d="M1057 1090q0 -129 -64.5 -238t-175 -172.5t-239.5 -63.5q-201 0 -340.5 137.5t-139.5 336.5q0 197 140.5 334t339.5 137q200 0 339.5 -136t139.5 -335zM897 1087q0 133 -94 229.5t-225 96.5q-133 0 -227.5 -94.5t-94.5 -226.5q0 -134 94.5 -230t227.5 -96q132 0 225.5 94
t93.5 227zM782 862h-139l-65 172h-31v-84q21 -4 41 -12v-76h-201v74q26 10 47 14v281q-5 2 -22 6.5t-25 7.5v74h51q17 0 72 2t80 2q86 0 132 -34t46 -99q0 -42 -22 -75.5t-58 -47.5q16 -26 23 -43l30 -74q9 -1 41 -12v-76zM643 1180q0 48 -59 45q-2 2 -10 2t-18 -1l-9 -1
v-101h26q35 -1 52.5 15t17.5 41z" />
    <glyph glyph-name="macron" unicode="&#xaf;" horiz-adv-x="704" 
d="M563 1229h-444v190h444v-190z" />
    <glyph glyph-name="macron" unicode="&#x2c9;" horiz-adv-x="704" 
d="M563 1229h-444v190h444v-190z" />
    <glyph glyph-name="degree" unicode="&#xb0;" horiz-adv-x="794" 
d="M696 1237q0 -134 -93.5 -212.5t-221.5 -78.5q-137 0 -216 76.5t-79 208.5q0 87 46 154.5t115.5 101t147.5 33.5q151 0 226 -80t75 -203zM502 1237q0 47 -28 83t-81 36q-50 0 -81 -34t-31 -89q0 -56 30 -88.5t80 -32.5t80.5 35t30.5 90z" />
    <glyph glyph-name="plusminus" unicode="&#xb1;" horiz-adv-x="1206" 
d="M1108 545h-381v-383h-248v383h-381v215h381v379h248v-379h381v-215zM1098 -162h-989v219h989v-219z" />
    <glyph glyph-name="twosuperior" unicode="&#xb2;" horiz-adv-x="790" 
d="M725 553h-666v186l183 144q113 91 152.5 137t39.5 90q0 98 -108 98q-52 0 -84 -14q-7 -65 -21 -125h-151v279q130 49 301 49q165 0 245 -66t80 -182q0 -83 -40.5 -153t-129.5 -140l-129 -102q123 6 328 6v-207z" />
    <glyph glyph-name="threesuperior" unicode="&#xb3;" horiz-adv-x="737" 
d="M686 809q0 -125 -113.5 -199.5t-306.5 -74.5q-95 0 -205 18l23 172q103 -23 178 -23q168 0 168 91q0 28 -12.5 46.5t-47.5 32t-97.5 12.5t-163.5 -10v156q178 0 245.5 28t67.5 91q0 37 -27 60.5t-78 23.5q-23 0 -69 -8q-7 -62 -21 -109h-151v250q148 31 276 31
q158 0 238 -58.5t80 -158.5q0 -138 -131 -189q68 -13 107.5 -64t39.5 -118z" />
    <glyph glyph-name="acute" unicode="&#xb4;" horiz-adv-x="804" 
d="M651 1348l-377 -195l-90 150l359 225z" />
    <glyph glyph-name="mu" unicode="&#xb5;" horiz-adv-x="1251" 
d="M1100 0h-248q0 96 10 170h-2q-32 -76 -101.5 -130t-183.5 -54q-110 0 -163 53l-4 -2q4 -39 4 -201v-330h-260v1512h260v-621q0 -110 46.5 -157t137.5 -47q108 0 176 93t68 240v492h260v-1018z" />
    <glyph glyph-name="mu" unicode="&#x3bc;" horiz-adv-x="1251" 
d="M1100 0h-248q0 96 10 170h-2q-32 -76 -101.5 -130t-183.5 -54q-110 0 -163 53l-4 -2q4 -39 4 -201v-330h-260v1512h260v-621q0 -110 46.5 -157t137.5 -47q108 0 176 93t68 240v492h260v-1018z" />
    <glyph glyph-name="paragraph" unicode="&#xb6;" horiz-adv-x="1206" 
d="M758 12v1370h356v-208h-133v-1371h-367v209h144zM598 1382v-909q-123 -1 -218 35t-152 100t-86 145.5t-29 176.5q0 204 134 328t351 124z" />
    <glyph glyph-name="periodcentered" unicode="&#xb7;" horiz-adv-x="550" 
d="M276 758q69 0 119.5 -50.5t50.5 -119.5q0 -70 -50.5 -120t-119.5 -50q-70 0 -120 50t-50 120q0 69 50 119.5t120 50.5z" />
    <glyph glyph-name="periodcentered" unicode="&#x2219;" horiz-adv-x="550" 
d="M276 758q69 0 119.5 -50.5t50.5 -119.5q0 -70 -50.5 -120t-119.5 -50q-70 0 -120 50t-50 120q0 69 50 119.5t120 50.5z" />
    <glyph glyph-name="cedilla" unicode="&#xb8;" horiz-adv-x="819" 
d="M575 -104q135 -262 -200 -406l-123 100q188 124 84 306h239z" />
    <glyph glyph-name="onesuperior" unicode="&#xb9;" horiz-adv-x="688" 
d="M489 733q98 -12 160 -26v-154h-592v154q78 20 181 26v430l-162 -67l-39 200l237 86h215v-649z" />
    <glyph glyph-name="ordmasculine" unicode="&#xba;" horiz-adv-x="872" 
d="M788 1038q0 -176 -105 -282.5t-269 -106.5q-73 0 -132 20.5t-105 63t-71.5 115t-25.5 170.5q0 176 104 281.5t262 105.5q157 0 249.5 -88t92.5 -279zM575 1028q0 195 -141 195q-60 0 -102.5 -48t-42.5 -145q0 -87 33 -144t106 -57q65 0 106 49t41 150z" />
    <glyph glyph-name="guillemotright" unicode="&#xbb;" horiz-adv-x="1093" 
d="M580 207l178 305l-180 301l210 96l220 -397l-226 -401zM119 217l192 295l-194 289l205 100l241 -389l-248 -391z" />
    <glyph glyph-name="onequarter" unicode="&#xbc;" horiz-adv-x="2019" 
d="M1942 217h-130v-70q65 -6 125 -22v-125h-505v125q70 16 141 22v70h-371l-28 184l333 428h305v-440h130v-172zM1507 1513l-862 -1730h-268l864 1730h266zM649 553h-592v154q78 20 181 26v430l-162 -67l-39 200l237 86h215v-649q98 -12 160 -26v-154zM1577 385v281
l-209 -283q53 2 209 2z" />
    <glyph glyph-name="onehalf" unicode="&#xbd;" horiz-adv-x="2043" 
d="M1962 0h-666v186l183 144q113 91 152.5 137t39.5 90q0 98 -108 98q-52 0 -84 -14q-7 -65 -21 -125h-151v279q130 49 301 49q165 0 245 -66t80 -182q0 -83 -40.5 -153t-129.5 -140l-129 -102q114 6 328 6v-207zM1507 1513l-862 -1730h-268l864 1730h266zM649 553h-592v154
q78 20 181 26v430l-162 -67l-39 200l237 86h215v-649q98 -12 160 -26v-154z" />
    <glyph glyph-name="threequarters" unicode="&#xbe;" horiz-adv-x="2041" 
d="M1952 217h-129v-70q68 -6 125 -22v-125h-506v125q68 16 143 22v70h-373l-26 184l334 428h303v-440h129v-172zM1516 1513l-863 -1730h-266l864 1730h265zM686 809q0 -125 -113.5 -199.5t-306.5 -74.5q-95 0 -205 18l23 172q103 -23 178 -23q168 0 168 91q0 28 -12.5 46.5
t-47.5 32t-97.5 12.5t-163.5 -10v156q178 0 245.5 28t67.5 91q0 37 -27 60.5t-78 23.5q-23 0 -69 -8q-7 -62 -21 -109h-151v250q148 31 276 31q158 0 238 -58.5t80 -158.5q0 -138 -131 -189q68 -13 107.5 -64t39.5 -118zM1587 385v281l-209 -283q53 2 209 2z" />
    <glyph glyph-name="questiondown" unicode="&#xbf;" horiz-adv-x="882" 
d="M678 885q0 -65 -46.5 -109.5t-113.5 -44.5q-69 0 -115.5 44.5t-46.5 109.5q0 66 46.5 110.5t115.5 44.5q68 0 114 -44.5t46 -110.5zM772 -221l-33 -238q-158 6 -283.5 43t-202.5 96t-117 131.5t-40 153.5q0 52 13.5 98.5t36 81.5t51.5 67t59 60t58.5 57t50.5 60.5
t35.5 66.5t13.5 80.5t-17 98.5h254q35 -92 28.5 -168t-36.5 -126.5t-75 -98t-86.5 -82t-71 -78.5t-29.5 -88q0 -92 105.5 -150.5t285.5 -64.5z" />
    <glyph glyph-name="Agrave" unicode="&#xc0;" horiz-adv-x="1427" 
d="M1411 0h-545v166q95 18 146 22l-60 164h-503l-58 -164q51 -4 146 -22v-166h-521v166q56 17 109 20l422 1196h325l431 -1196q52 -3 108 -20v-166zM887 559l-123 340q-44 119 -64 219h-2q-30 -135 -65 -229l-119 -330h373zM872 1622l-92 -152l-377 195l113 182z" />
    <glyph glyph-name="Aacute" unicode="&#xc1;" horiz-adv-x="1427" 
d="M1411 0h-545v166q95 18 146 22l-60 164h-503l-58 -164q51 -4 146 -22v-166h-521v166q56 17 109 20l422 1196h325l431 -1196q52 -3 108 -20v-166zM887 559l-123 340q-44 119 -64 219h-2q-30 -135 -65 -229l-119 -330h373zM1010 1667l-377 -194l-90 149l358 225z" />
    <glyph glyph-name="Acircumflex" unicode="&#xc2;" horiz-adv-x="1427" 
d="M1411 0h-545v166q95 18 146 22l-60 164h-503l-58 -164q51 -4 146 -22v-166h-521v166q56 17 109 20l422 1196h325l431 -1196q52 -3 108 -20v-166zM887 559l-123 340q-44 119 -64 219h-2q-30 -135 -65 -229l-119 -330h373zM1020 1638l-84 -153l-231 129l-228 -129l-78 151
l308 181z" />
    <glyph glyph-name="Atilde" unicode="&#xc3;" horiz-adv-x="1427" 
d="M1411 0h-545v166q95 18 146 22l-60 164h-503l-58 -164q51 -4 146 -22v-166h-521v166q56 17 109 20l422 1196h325l431 -1196q52 -3 108 -20v-166zM887 559l-123 340q-44 119 -64 219h-2q-30 -135 -65 -229l-119 -330h373zM1059 1585q-37 -34 -96.5 -60t-114.5 -26
q-53 0 -98.5 15.5t-72 34.5t-65.5 34.5t-80 15.5q-72 0 -139 -67l-51 174q98 88 211 88q49 0 93 -15.5t71.5 -34.5t66.5 -34.5t78 -15.5q81 0 146 65z" />
    <glyph glyph-name="Adieresis" unicode="&#xc4;" horiz-adv-x="1427" 
d="M1411 0h-545v166q95 18 146 22l-60 164h-503l-58 -164q51 -4 146 -22v-166h-521v166q56 17 109 20l422 1196h325l431 -1196q52 -3 108 -20v-166zM887 559l-123 340q-44 119 -64 219h-2q-30 -135 -65 -229l-119 -330h373zM1055 1628q0 -58 -41.5 -99.5t-100.5 -41.5
t-100 41.5t-41 99.5q0 60 41 100.5t100 40.5t100.5 -40.5t41.5 -100.5zM641 1628q0 -58 -41.5 -99.5t-99.5 -41.5q-59 0 -100.5 41.5t-41.5 99.5q0 60 41.5 100.5t100.5 40.5t100 -40.5t41 -100.5z" />
    <glyph glyph-name="Aring" unicode="&#xc5;" horiz-adv-x="1427" 
d="M1411 0h-545v166q95 18 146 22l-60 164h-503l-58 -164q51 -4 146 -22v-166h-521v166q56 17 109 20l422 1196h325l431 -1196q52 -3 108 -20v-166zM887 559l-123 340q-44 119 -64 219h-2q-30 -135 -65 -229l-119 -330h373zM969 1583q0 -105 -76 -177.5t-184 -72.5
q-110 0 -185 71t-75 179q0 106 76 177t184 71q110 0 185 -71t75 -177zM815 1583q0 45 -31 77t-75 32t-76.5 -32.5t-32.5 -76.5t32.5 -76t76.5 -32t75 32t31 76z" />
    <glyph glyph-name="AE" unicode="&#xc6;" horiz-adv-x="1693" 
d="M1585 0h-919v168q66 15 145 22v162h-414l-84 -164q52 -5 125 -22v-166h-501v166q56 17 110 20l528 1006q-70 5 -178 25v165h1174v-348h-197q-16 82 -22 140h-275v-369h223q8 55 25 113h170v-416h-170q-13 38 -25 112h-223v-399h285q5 55 22 147h201v-362zM811 559v610h-8
q-82 -188 -139 -299l-166 -311h313z" />
    <glyph glyph-name="Ccedilla" unicode="&#xc7;" horiz-adv-x="1193" 
d="M1098 963h-201q-18 95 -27 174q-78 16 -139 16q-170 0 -264 -125t-94 -336q0 -228 101 -346.5t325 -118.5q150 0 293 58l16 -246q-180 -59 -369 -59q-327 0 -494 175t-167 492q0 228 76 394t235.5 261t390.5 95q164 0 318 -37v-397zM819 -104q135 -261 -201 -406
l-122 100q188 124 84 306h239z" />
    <glyph glyph-name="Egrave" unicode="&#xc8;" horiz-adv-x="1099" 
d="M993 0h-946v166q100 19 178 24v1002q-70 5 -178 25v165h942v-348h-198q-19 122 -21 140h-278v-369h223q10 63 24 113h170v-416h-170q-11 32 -24 112h-223v-399h280q4 46 23 147h198v-362zM713 1622l-92 -152l-377 195l112 182z" />
    <glyph glyph-name="Eacute" unicode="&#xc9;" horiz-adv-x="1099" 
d="M993 0h-946v166q100 19 178 24v1002q-70 5 -178 25v165h942v-348h-198q-19 122 -21 140h-278v-369h223q10 63 24 113h170v-416h-170q-11 32 -24 112h-223v-399h280q4 46 23 147h198v-362zM889 1667l-377 -194l-90 149l358 225z" />
    <glyph glyph-name="Ecircumflex" unicode="&#xca;" horiz-adv-x="1099" 
d="M993 0h-946v166q100 19 178 24v1002q-70 5 -178 25v165h942v-348h-198q-19 122 -21 140h-278v-369h223q10 63 24 113h170v-416h-170q-11 32 -24 112h-223v-399h280q4 46 23 147h198v-362zM874 1638l-83 -153l-232 129l-227 -129l-78 151l307 181z" />
    <glyph glyph-name="Edieresis" unicode="&#xcb;" horiz-adv-x="1099" 
d="M993 0h-946v166q100 19 178 24v1002q-70 5 -178 25v165h942v-348h-198q-19 122 -21 140h-278v-369h223q10 63 24 113h170v-416h-170q-11 32 -24 112h-223v-399h280q4 46 23 147h198v-362zM901 1628q0 -58 -41.5 -99.5t-99.5 -41.5q-59 0 -100.5 41.5t-41.5 99.5
q0 60 41.5 100.5t100.5 40.5t100 -40.5t41 -100.5zM487 1628q0 -58 -41.5 -99.5t-99.5 -41.5t-99.5 41.5t-41.5 99.5q0 60 41 100.5t100 40.5t100 -40.5t41 -100.5z" />
    <glyph glyph-name="Igrave" unicode="&#xcc;" horiz-adv-x="714" 
d="M528 1622l-92 -152l-375 195l111 182zM664 0h-623v166q100 19 178 24v1002q-70 5 -178 25v165h623v-165q-108 -20 -179 -25v-1002q79 -5 179 -24v-166z" />
    <glyph glyph-name="Iacute" unicode="&#xcd;" horiz-adv-x="714" 
d="M625 1667l-377 -194l-90 149l358 223zM664 0h-623v166q100 19 178 24v1002q-70 5 -178 25v165h623v-165q-108 -20 -179 -25v-1002q79 -5 179 -24v-166z" />
    <glyph glyph-name="Icircumflex" unicode="&#xce;" horiz-adv-x="714" 
d="M666 1638l-84 -155l-232 131l-227 -131l-78 151l307 183zM664 0h-623v166q100 19 178 24v1002q-70 5 -178 25v165h623v-165q-108 -20 -179 -25v-1002q79 -5 179 -24v-166z" />
    <glyph glyph-name="Idieresis" unicode="&#xcf;" horiz-adv-x="714" 
d="M694 1630q0 -58 -41 -99.5t-100 -41.5t-100 41.5t-41 99.5q0 59 41.5 100.5t99.5 41.5t99.5 -41.5t41.5 -100.5zM281 1630q0 -58 -41.5 -99.5t-100.5 -41.5t-100 41.5t-41 99.5q0 59 41.5 100.5t99.5 41.5q59 0 100.5 -42t41.5 -100zM664 0h-623v166q100 19 178 24v1002
q-70 5 -178 25v165h623v-165q-108 -20 -179 -25v-1002q79 -5 179 -24v-166z" />
    <glyph glyph-name="Eth" unicode="&#xd0;" horiz-adv-x="1449" 
d="M1374 715q0 -175 -55 -313t-156 -227.5t-240.5 -136t-310.5 -46.5q-73 0 -200 4t-185 4h-178v166q100 19 178 24v412h-157v201h157v389q-70 5 -178 25v165h174q48 0 204.5 4.5t248.5 4.5q698 0 698 -676zM1090 694q0 232 -102.5 352.5t-330.5 120.5q-97 0 -161 -6v-358
h245v-201h-245v-373q62 -10 145 -10q99 0 180 28.5t141.5 85.5t94 149t33.5 212z" />
    <glyph glyph-name="Ntilde" unicode="&#xd1;" horiz-adv-x="1558" 
d="M1511 1214q-55 -14 -129 -24v-1190h-342l-422 702q-70 116 -147 295q12 -179 12 -804q75 -6 148 -25v-168h-584v166q125 23 178 27v999q-70 5 -178 25v165h522l416 -698q58 -94 154 -291q-15 194 -15 797q-75 6 -139 24v168h526v-168zM1167 1585q-37 -34 -96.5 -60
t-114.5 -26q-53 0 -98 15.5t-72 34.5t-65.5 34.5t-79.5 15.5q-72 0 -139 -67l-51 174q98 88 211 88q49 0 93 -15.5t71.5 -34.5t66.5 -34.5t78 -15.5q80 0 145 65z" />
    <glyph glyph-name="Ograve" unicode="&#xd2;" horiz-adv-x="1439" 
d="M1372 711q0 -167 -53 -306.5t-144.5 -232.5t-214.5 -144t-264 -51q-310 0 -469 184t-159 513q0 167 53.5 306t145 231.5t214.5 143t262 50.5q140 0 254 -42.5t198.5 -126.5t130.5 -217.5t46 -307.5zM1087 690q0 230 -95 352.5t-273 122.5q-73 0 -138 -29.5t-116.5 -85
t-82 -145.5t-30.5 -203q0 -227 91 -355t272 -128q70 0 134.5 27.5t118.5 82.5t86.5 148t32.5 213zM911 1622l-92 -152l-377 195l113 182z" />
    <glyph glyph-name="Oacute" unicode="&#xd3;" horiz-adv-x="1439" 
d="M1372 711q0 -167 -53 -306.5t-144.5 -232.5t-214.5 -144t-264 -51q-310 0 -469 184t-159 513q0 167 53.5 306t145 231.5t214.5 143t262 50.5q140 0 254 -42.5t198.5 -126.5t130.5 -217.5t46 -307.5zM1087 690q0 230 -95 352.5t-273 122.5q-73 0 -138 -29.5t-116.5 -85
t-82 -145.5t-30.5 -203q0 -227 91 -355t272 -128q70 0 134.5 27.5t118.5 82.5t86.5 148t32.5 213zM1042 1667l-376 -194l-91 149l359 225z" />
    <glyph glyph-name="Ocircumflex" unicode="&#xd4;" horiz-adv-x="1439" 
d="M1372 711q0 -167 -53 -306.5t-144.5 -232.5t-214.5 -144t-264 -51q-310 0 -469 184t-159 513q0 167 53.5 306t145 231.5t214.5 143t262 50.5q140 0 254 -42.5t198.5 -126.5t130.5 -217.5t46 -307.5zM1087 690q0 230 -95 352.5t-273 122.5q-73 0 -138 -29.5t-116.5 -85
t-82 -145.5t-30.5 -203q0 -227 91 -355t272 -128q70 0 134.5 27.5t118.5 82.5t86.5 148t32.5 213zM1049 1638l-84 -153l-232 129l-227 -129l-78 151l307 181z" />
    <glyph glyph-name="Otilde" unicode="&#xd5;" horiz-adv-x="1439" 
d="M1372 711q0 -167 -53 -306.5t-144.5 -232.5t-214.5 -144t-264 -51q-310 0 -469 184t-159 513q0 167 53.5 306t145 231.5t214.5 143t262 50.5q140 0 254 -42.5t198.5 -126.5t130.5 -217.5t46 -307.5zM1087 690q0 230 -95 352.5t-273 122.5q-73 0 -138 -29.5t-116.5 -85
t-82 -145.5t-30.5 -203q0 -227 91 -355t272 -128q70 0 134.5 27.5t118.5 82.5t86.5 148t32.5 213zM1079 1591q-37 -34 -96.5 -60t-114.5 -26q-53 0 -98 16t-72 34.5t-65.5 34.5t-79.5 16q-71 0 -139 -68l-52 174q98 88 211 88q49 0 93 -15.5t72 -34.5t67 -34.5t78 -15.5
q80 0 145 65z" />
    <glyph glyph-name="Odieresis" unicode="&#xd6;" horiz-adv-x="1439" 
d="M1372 711q0 -167 -53 -306.5t-144.5 -232.5t-214.5 -144t-264 -51q-310 0 -469 184t-159 513q0 167 53.5 306t145 231.5t214.5 143t262 50.5q140 0 254 -42.5t198.5 -126.5t130.5 -217.5t46 -307.5zM1087 690q0 230 -95 352.5t-273 122.5q-73 0 -138 -29.5t-116.5 -85
t-82 -145.5t-30.5 -203q0 -227 91 -355t272 -128q70 0 134.5 27.5t118.5 82.5t86.5 148t32.5 213zM1081 1628q0 -58 -41.5 -99.5t-99.5 -41.5t-99.5 41.5t-41.5 99.5q0 60 41 100.5t100 40.5t100 -40.5t41 -100.5zM668 1628q0 -58 -41.5 -99.5t-100.5 -41.5
q-58 0 -99.5 41.5t-41.5 99.5q0 60 41 100.5t100 40.5t100.5 -40.5t41.5 -100.5z" />
    <glyph glyph-name="multiply" unicode="&#xd7;" horiz-adv-x="1173" 
d="M1051 836l-316 -316l318 -317l-160 -160l-318 317l-313 -315l-143 141l315 318l-315 315l160 160l315 -315l315 315z" />
    <glyph glyph-name="Oslash" unicode="&#xd8;" horiz-adv-x="1439" 
d="M1364 700q0 -165 -51.5 -302t-142 -228.5t-213 -142t-263.5 -50.5q-73 0 -127 11l-71 -203l-193 61l70 201q-153 78 -230 241.5t-77 387.5q0 168 51 306.5t141 230.5t212 142t263 50q66 0 113 -8l67 192l193 -61l-66 -187q154 -71 239 -232.5t85 -408.5zM1094 684
q0 137 -36 240.5t-106 156.5l-305 -862q37 -10 98 -6q150 11 249.5 131.5t99.5 339.5zM766 1157q-48 8 -115 -2q-136 -20 -225.5 -138.5t-89.5 -320.5q0 -282 127 -385z" />
    <glyph glyph-name="Ugrave" unicode="&#xd9;" horiz-adv-x="1456" 
d="M1409 1214q-64 -16 -127 -22v-662q0 -553 -571 -553q-91 0 -166.5 14t-130.5 39t-96.5 61.5t-68 78.5t-43.5 94t-23.5 103.5t-6.5 111.5v713q-66 6 -129 22v168h543v-168q-55 -14 -148 -22v-696q0 -70 12.5 -121t43.5 -92.5t88.5 -62.5t140.5 -21q156 0 224.5 73
t68.5 248v672q-94 8 -148 22v168h537v-168zM868 1622l-92 -152l-377 195l113 182z" />
    <glyph glyph-name="Uacute" unicode="&#xda;" horiz-adv-x="1456" 
d="M1409 1214q-64 -16 -127 -22v-662q0 -553 -571 -553q-91 0 -166.5 14t-130.5 39t-96.5 61.5t-68 78.5t-43.5 94t-23.5 103.5t-6.5 111.5v713q-66 6 -129 22v168h543v-168q-55 -14 -148 -22v-696q0 -70 12.5 -121t43.5 -92.5t88.5 -62.5t140.5 -21q156 0 224.5 73
t68.5 248v672q-94 8 -148 22v168h537v-168zM1059 1667l-377 -194l-90 149l358 225z" />
    <glyph glyph-name="Ucircumflex" unicode="&#xdb;" horiz-adv-x="1456" 
d="M1409 1214q-64 -16 -127 -22v-662q0 -553 -571 -553q-91 0 -166.5 14t-130.5 39t-96.5 61.5t-68 78.5t-43.5 94t-23.5 103.5t-6.5 111.5v713q-66 6 -129 22v168h543v-168q-55 -14 -148 -22v-696q0 -70 12.5 -121t43.5 -92.5t88.5 -62.5t140.5 -21q156 0 224.5 73
t68.5 248v672q-94 8 -148 22v168h537v-168zM1034 1638l-84 -153l-231 129l-227 -129l-78 151l307 181z" />
    <glyph glyph-name="Udieresis" unicode="&#xdc;" horiz-adv-x="1456" 
d="M1409 1214q-64 -16 -127 -22v-662q0 -553 -571 -553q-91 0 -166.5 14t-130.5 39t-96.5 61.5t-68 78.5t-43.5 94t-23.5 103.5t-6.5 111.5v713q-66 6 -129 22v168h543v-168q-55 -14 -148 -22v-696q0 -70 12.5 -121t43.5 -92.5t88.5 -62.5t140.5 -21q156 0 224.5 73
t68.5 248v672q-94 8 -148 22v168h537v-168zM1071 1628q0 -58 -41.5 -99.5t-99.5 -41.5q-59 0 -100.5 41.5t-41.5 99.5q0 60 41.5 100.5t100.5 40.5t100 -40.5t41 -100.5zM657 1628q0 -58 -41.5 -99.5t-99.5 -41.5t-99.5 41.5t-41.5 99.5q0 60 41 100.5t100 40.5t100 -40.5
t41 -100.5z" />
    <glyph glyph-name="Yacute" unicode="&#xdd;" horiz-adv-x="1251" 
d="M975 1665l-375 -195l-90 150l356 225zM1237 1214q-64 -15 -109 -18l-372 -725v-281q78 -5 178 -24v-166h-623v166q100 19 178 24v281l-366 725q-50 3 -107 18v168h527v-168q-52 -13 -121 -20l125 -272q59 -129 82 -191h6q29 72 88 197l127 266q-75 7 -123 20v168h510
v-168z" />
    <glyph glyph-name="Thorn" unicode="&#xde;" horiz-adv-x="1236" 
d="M1188 739q0 -135 -71 -235t-191 -150.5t-273 -50.5q-49 0 -161 10v-123q78 -5 178 -24v-166h-623v166q100 19 178 24v1002q-70 5 -178 25v165h623v-165q-108 -20 -178 -25v-88q79 8 192 8q504 0 504 -373zM897 723q0 82 -63 131t-197 49q-76 0 -145 -14v-363
q62 -10 131 -10q131 0 202.5 55.5t71.5 151.5z" />
    <glyph glyph-name="germandbls" unicode="&#xdf;" horiz-adv-x="1417" 
d="M1372 328q0 -147 -108.5 -244.5t-309.5 -97.5q-123 0 -243 20v309h168q9 -49 18 -127q24 -8 70 -8q141 0 141 119q0 35 -23.5 63.5t-61 49.5t-82.5 42t-90 48t-82.5 60t-61 85.5t-23.5 118.5q0 59 23 105t56 76.5t65.5 59t55.5 66t23 84.5q0 62 -47.5 100.5t-130.5 38.5
q-118 0 -177.5 -73t-59.5 -234v-799q82 -7 139 -24v-166h-578v166q100 19 178 24v627q-91 15 -182 21v163q119 13 182 15q3 241 135.5 365t376.5 124q209 0 323 -88t114 -229q0 -69 -23.5 -119.5t-56.5 -79.5t-66 -53.5t-56.5 -57.5t-23.5 -75q0 -34 23 -62t60 -50
t81.5 -44.5t89 -51t81.5 -63t60 -87t23 -117.5z" />
    <glyph glyph-name="agrave" unicode="&#xe0;" 
d="M1096 14q-192 -23 -410 -16q0 108 10 174l-2 2q-37 -87 -124.5 -140.5t-200.5 -53.5q-137 0 -214 72t-77 196q0 177 159.5 271t428.5 97v62q0 85 -41.5 124.5t-145.5 39.5q-75 0 -143 -19q-3 -33 -21 -133h-165v299q181 53 356 53q121 0 204.5 -23.5t130.5 -71.5
t67 -110.5t20 -150.5v-485q95 -15 168 -21v-166zM666 424v22q-338 0 -338 -159q0 -50 32 -79.5t89 -29.5q94 0 155.5 74t61.5 172zM713 1303l-92 -152l-377 195l112 182z" />
    <glyph glyph-name="aacute" unicode="&#xe1;" 
d="M1096 14q-192 -23 -410 -16q0 108 10 174l-2 2q-37 -87 -124.5 -140.5t-200.5 -53.5q-137 0 -214 72t-77 196q0 177 159.5 271t428.5 97v62q0 85 -41.5 124.5t-145.5 39.5q-75 0 -143 -19q-3 -33 -21 -133h-165v299q181 53 356 53q121 0 204.5 -23.5t130.5 -71.5
t67 -110.5t20 -150.5v-485q95 -15 168 -21v-166zM666 424v22q-338 0 -338 -159q0 -50 32 -79.5t89 -29.5q94 0 155.5 74t61.5 172zM829 1348l-376 -195l-91 150l359 225z" />
    <glyph glyph-name="acircumflex" unicode="&#xe2;" 
d="M1096 14q-192 -23 -410 -16q0 108 10 174l-2 2q-37 -87 -124.5 -140.5t-200.5 -53.5q-137 0 -214 72t-77 196q0 177 159.5 271t428.5 97v62q0 85 -41.5 124.5t-145.5 39.5q-75 0 -143 -19q-3 -33 -21 -133h-165v299q181 53 356 53q121 0 204.5 -23.5t130.5 -71.5
t67 -110.5t20 -150.5v-485q95 -15 168 -21v-166zM666 424v22q-338 0 -338 -159q0 -50 32 -79.5t89 -29.5q94 0 155.5 74t61.5 172zM848 1319l-84 -154l-232 129l-227 -129l-78 152l308 180z" />
    <glyph glyph-name="atilde" unicode="&#xe3;" 
d="M1096 14q-192 -23 -410 -16q0 108 10 174l-2 2q-37 -87 -124.5 -140.5t-200.5 -53.5q-137 0 -214 72t-77 196q0 177 159.5 271t428.5 97v62q0 85 -41.5 124.5t-145.5 39.5q-75 0 -143 -19q-3 -33 -21 -133h-165v299q181 53 356 53q121 0 204.5 -23.5t130.5 -71.5
t67 -110.5t20 -150.5v-485q95 -15 168 -21v-166zM666 424v22q-338 0 -338 -159q0 -50 32 -79.5t89 -29.5q94 0 155.5 74t61.5 172zM891 1266q-37 -34 -96.5 -60t-114.5 -26q-53 0 -98 15.5t-72 34.5t-65.5 34.5t-79.5 15.5q-72 0 -140 -68l-51 174q99 89 211 89q49 0 93 -16
t71.5 -34.5t66.5 -34.5t78 -16q80 0 146 66z" />
    <glyph glyph-name="adieresis" unicode="&#xe4;" 
d="M1096 14q-192 -23 -410 -16q0 108 10 174l-2 2q-37 -87 -124.5 -140.5t-200.5 -53.5q-137 0 -214 72t-77 196q0 177 159.5 271t428.5 97v62q0 85 -41.5 124.5t-145.5 39.5q-75 0 -143 -19q-3 -33 -21 -133h-165v299q181 53 356 53q121 0 204.5 -23.5t130.5 -71.5
t67 -110.5t20 -150.5v-485q95 -15 168 -21v-166zM666 424v22q-338 0 -338 -159q0 -50 32 -79.5t89 -29.5q94 0 155.5 74t61.5 172zM883 1327q0 -58 -41.5 -99.5t-100.5 -41.5t-100 41t-41 100q0 60 41 100.5t100 40.5t100.5 -40.5t41.5 -100.5zM469 1327q0 -59 -41.5 -100
t-99.5 -41q-59 0 -100.5 41.5t-41.5 99.5q0 60 41.5 100.5t100.5 40.5t100 -40.5t41 -100.5z" />
    <glyph glyph-name="aring" unicode="&#xe5;" 
d="M1096 14q-192 -23 -410 -16q0 108 10 174l-2 2q-37 -87 -124.5 -140.5t-200.5 -53.5q-137 0 -214 72t-77 196q0 177 159.5 271t428.5 97v62q0 85 -41.5 124.5t-145.5 39.5q-75 0 -143 -19q-3 -33 -21 -133h-165v299q181 53 356 53q121 0 204.5 -23.5t130.5 -71.5
t67 -110.5t20 -150.5v-485q95 -15 168 -21v-166zM666 424v22q-338 0 -338 -159q0 -50 32 -79.5t89 -29.5q94 0 155.5 74t61.5 172zM788 1366q0 -105 -76 -177.5t-184 -72.5q-110 0 -185 71t-75 179q0 106 76 177t184 71q110 0 185 -71t75 -177zM635 1366q0 44 -31.5 76.5
t-75.5 32.5t-76 -32.5t-32 -76.5t32 -76.5t76 -32.5t75.5 32.5t31.5 76.5z" />
    <glyph glyph-name="ae" unicode="&#xe6;" horiz-adv-x="1638" 
d="M1561 586q0 -54 -9 -119h-630q-3 -283 278 -283q162 0 299 64l25 -203q-165 -65 -365 -65q-157 0 -264.5 55t-159.5 151l-2 -2q-52 -89 -144 -146.5t-227 -57.5t-209.5 72t-74.5 196q0 177 159.5 271t428.5 97v62q0 83 -42.5 123.5t-144.5 40.5q-75 0 -143 -19
q-3 -33 -21 -133h-165v299q181 53 356 53q231 0 328 -124h2q46 55 124.5 88.5t172.5 33.5q108 0 191.5 -35t134.5 -97.5t76.5 -143.5t25.5 -178zM1300 645q3 95 -44.5 149t-131.5 54q-81 0 -134 -55t-64 -148h374zM666 424v22q-338 0 -338 -159q0 -48 32.5 -78.5t88.5 -30.5
q94 0 155.5 74t61.5 172z" />
    <glyph glyph-name="ccedilla" unicode="&#xe7;" horiz-adv-x="915" 
d="M850 29q-146 -47 -293 -47q-231 0 -359 121t-128 372q0 121 32 221.5t95.5 177.5t168 119.5t240.5 42.5q125 0 238 -35v-327h-168q-19 119 -21 135q-31 10 -84 10q-106 0 -167.5 -82.5t-61.5 -226.5q0 -147 63.5 -224t210.5 -77q120 0 215 45zM633 -104
q135 -261 -201 -406l-123 100q188 124 84 306h240z" />
    <glyph glyph-name="egrave" unicode="&#xe8;" horiz-adv-x="1052" 
d="M975 586q0 -62 -8 -119h-631q-3 -283 280 -283q160 0 297 64l25 -203q-165 -65 -365 -65q-503 0 -503 520q0 240 127 390t350 150q108 0 191.5 -35t134.5 -97.5t76.5 -143.5t25.5 -178zM715 645q3 95 -44.5 149t-131.5 54q-81 0 -134.5 -55t-64.5 -148h375zM725 1303
l-92 -152l-377 195l113 182z" />
    <glyph glyph-name="eacute" unicode="&#xe9;" horiz-adv-x="1052" 
d="M975 586q0 -62 -8 -119h-631q-3 -283 280 -283q160 0 297 64l25 -203q-165 -65 -365 -65q-503 0 -503 520q0 240 127 390t350 150q108 0 191.5 -35t134.5 -97.5t76.5 -143.5t25.5 -178zM715 645q3 95 -44.5 149t-131.5 54q-81 0 -134.5 -55t-64.5 -148h375zM842 1348
l-377 -195l-90 150l358 225z" />
    <glyph glyph-name="ecircumflex" unicode="&#xea;" horiz-adv-x="1052" 
d="M975 586q0 -62 -8 -119h-631q-3 -283 280 -283q160 0 297 64l25 -203q-165 -65 -365 -65q-503 0 -503 520q0 240 127 390t350 150q108 0 191.5 -35t134.5 -97.5t76.5 -143.5t25.5 -178zM715 645q3 95 -44.5 149t-131.5 54q-81 0 -134.5 -55t-64.5 -148h375zM852 1319
l-84 -154l-231 129l-228 -129l-78 152l308 180z" />
    <glyph glyph-name="edieresis" unicode="&#xeb;" horiz-adv-x="1052" 
d="M975 586q0 -62 -8 -119h-631q-3 -283 280 -283q160 0 297 64l25 -203q-165 -65 -365 -65q-503 0 -503 520q0 240 127 390t350 150q108 0 191.5 -35t134.5 -97.5t76.5 -143.5t25.5 -178zM715 645q3 95 -44.5 149t-131.5 54q-81 0 -134.5 -55t-64.5 -148h375zM895 1327
q0 -59 -41.5 -100t-99.5 -41q-59 0 -100.5 41.5t-41.5 99.5q0 60 41.5 100.5t100.5 40.5t100 -40.5t41 -100.5zM481 1327q0 -59 -41.5 -100t-99.5 -41t-99.5 41t-41.5 100q0 60 41 100.5t100 40.5t100 -40.5t41 -100.5z" />
    <glyph glyph-name="igrave" unicode="&#xec;" horiz-adv-x="696" 
d="M487 1303l-92 -152l-375 195l111 182zM645 0h-604v166q100 19 178 24v627q-94 15 -178 21v163q203 25 438 19v-830q79 -6 166 -24v-166z" />
    <glyph glyph-name="iacute" unicode="&#xed;" horiz-adv-x="696" 
d="M600 1348l-377 -195l-90 150l359 225zM645 0h-604v166q100 19 178 24v627q-94 15 -178 21v163q203 25 438 19v-830q79 -6 166 -24v-166z" />
    <glyph glyph-name="icircumflex" unicode="&#xee;" horiz-adv-x="696" 
d="M649 1319l-84 -154l-233 129l-226 -129l-79 152l307 180zM645 0h-604v166q100 19 178 24v627q-94 15 -178 21v163q203 25 438 19v-830q79 -6 166 -24v-166z" />
    <glyph glyph-name="idieresis" unicode="&#xef;" horiz-adv-x="696" 
d="M672 1327q0 -58 -41.5 -99.5t-100.5 -41.5q-58 0 -99.5 41t-41.5 100q0 60 41 100.5t100 40.5t100.5 -40.5t41.5 -100.5zM258 1327q0 -59 -41 -100t-100 -41t-100.5 41.5t-41.5 99.5q0 60 41.5 100.5t100.5 40.5t100 -40.5t41 -100.5zM645 0h-604v166q100 19 178 24v627
q-94 15 -178 21v163q203 25 438 19v-830q79 -6 166 -24v-166z" />
    <glyph glyph-name="eth" unicode="&#xf0;" horiz-adv-x="1161" 
d="M1053 612q0 -135 -29.5 -244.5t-78 -180.5t-115 -118.5t-138 -68t-149.5 -20.5q-228 1 -345.5 130t-117.5 357q0 237 135 374.5t350 137.5q146 0 217 -74q-46 177 -133 271l-160 -117l-159 112l143 105q-64 37 -149 37q-61 0 -131 -13v205q62 8 135 8q183 0 323 -73
l148 108l157 -112l-139 -107q236 -231 236 -717zM791 537q0 114 -49 173.5t-162 59.5q-108 0 -172 -74t-64 -225q0 -124 58 -193t159 -69q113 0 171.5 85t58.5 243z" />
    <glyph glyph-name="ntilde" unicode="&#xf1;" horiz-adv-x="1316" 
d="M854 0v651q0 84 -28 127t-97 43q-99 0 -168 -97t-69 -232v-302q96 -8 149 -22v-168h-588v166q100 19 178 24v627q-94 15 -178 21v163q205 25 424 19q0 -108 -14 -182l2 -2q47 94 136 149t210 55q83 0 143.5 -25t94.5 -71t49.5 -102.5t15.5 -126.5v-525q75 -5 168 -24
v-166h-428zM1008 1266q-37 -34 -96.5 -60t-114.5 -26q-53 0 -98.5 15.5t-72 34.5t-65.5 34.5t-80 15.5q-71 0 -139 -68l-51 174q99 89 211 89q49 0 93 -16t71.5 -34.5t66.5 -34.5t78 -16q79 0 145 66z" />
    <glyph glyph-name="ograve" unicode="&#xf2;" 
d="M1063 528q0 -240 -146 -394t-374 -154q-226 0 -350.5 125t-124.5 387q0 239 144.5 392.5t375.5 153.5q224 0 349.5 -127.5t125.5 -382.5zM793 514q0 303 -224 303q-96 0 -163.5 -76t-67.5 -223q0 -315 227 -315q101 0 164.5 80.5t63.5 230.5zM768 1303l-92 -152l-377 195
l113 182z" />
    <glyph glyph-name="oacute" unicode="&#xf3;" 
d="M1063 528q0 -240 -146 -394t-374 -154q-226 0 -350.5 125t-124.5 387q0 239 144.5 392.5t375.5 153.5q224 0 349.5 -127.5t125.5 -382.5zM793 514q0 303 -224 303q-96 0 -163.5 -76t-67.5 -223q0 -315 227 -315q101 0 164.5 80.5t63.5 230.5zM870 1348l-376 -195l-91 150
l359 225z" />
    <glyph glyph-name="ocircumflex" unicode="&#xf4;" 
d="M1063 528q0 -240 -146 -394t-374 -154q-226 0 -350.5 125t-124.5 387q0 239 144.5 392.5t375.5 153.5q224 0 349.5 -127.5t125.5 -382.5zM793 514q0 303 -224 303q-96 0 -163.5 -76t-67.5 -223q0 -315 227 -315q101 0 164.5 80.5t63.5 230.5zM887 1319l-84 -154l-232 129
l-227 -129l-78 152l307 180z" />
    <glyph glyph-name="otilde" unicode="&#xf5;" 
d="M1063 528q0 -240 -146 -394t-374 -154q-226 0 -350.5 125t-124.5 387q0 239 144.5 392.5t375.5 153.5q224 0 349.5 -127.5t125.5 -382.5zM793 514q0 303 -224 303q-96 0 -163.5 -76t-67.5 -223q0 -315 227 -315q101 0 164.5 80.5t63.5 230.5zM938 1266q-37 -34 -96.5 -60
t-114.5 -26q-53 0 -98 15.5t-72 34.5t-65.5 34.5t-79.5 15.5q-72 0 -140 -68l-51 174q99 89 211 89q49 0 93 -16t71.5 -34.5t66.5 -34.5t78 -16q80 0 146 66z" />
    <glyph glyph-name="odieresis" unicode="&#xf6;" 
d="M1063 528q0 -240 -146 -394t-374 -154q-226 0 -350.5 125t-124.5 387q0 239 144.5 392.5t375.5 153.5q224 0 349.5 -127.5t125.5 -382.5zM793 514q0 303 -224 303q-96 0 -163.5 -76t-67.5 -223q0 -315 227 -315q101 0 164.5 80.5t63.5 230.5zM924 1327q0 -58 -41.5 -99.5
t-100.5 -41.5q-58 0 -99.5 41t-41.5 100q0 60 41 100.5t100 40.5t100.5 -40.5t41.5 -100.5zM510 1327q0 -59 -41 -100t-100 -41t-100.5 41.5t-41.5 99.5q0 60 41.5 100.5t100.5 40.5t100 -40.5t41 -100.5z" />
    <glyph glyph-name="divide" unicode="&#xf7;" horiz-adv-x="1239" 
d="M778 938q0 -66 -47 -113t-113 -47t-112.5 47t-46.5 113t46.5 114t112.5 48t113 -48t47 -114zM1141 418h-1043v221h1043v-221zM778 117q0 -66 -47 -113t-113 -47t-112.5 47t-46.5 113t46.5 112.5t112.5 46.5t113 -46.5t47 -112.5z" />
    <glyph glyph-name="oslash" unicode="&#xf8;" 
d="M1051 526q0 -242 -143 -395.5t-369 -153.5q-49 0 -109 11l-80 -207l-151 47l80 207q-105 60 -160.5 178.5t-55.5 284.5q0 244 141.5 393t370.5 149q49 0 93 -6l71 191l152 -47l-72 -187q232 -113 232 -465zM807 518q0 169 -80 240l-215 -559q43 -11 78 -6q95 8 156 90
t61 235zM586 825q-41 4 -62 2q-92 -12 -154.5 -90t-62.5 -225q0 -158 70 -231z" />
    <glyph glyph-name="ugrave" unicode="&#xf9;" horiz-adv-x="1292" 
d="M1255 14q-192 -23 -409 -16q0 116 12 182l-4 2q-48 -94 -137 -149.5t-209 -55.5q-83 0 -143.5 25.5t-94.5 71.5t-49.5 102.5t-15.5 126.5v514q-95 15 -168 21v166q189 22 428 16v-653q0 -84 28 -127t97 -43q99 0 168 97t69 232v293q-108 16 -149 19v168q201 20 412 14
v-819q97 -16 165 -21v-166zM799 1303l-92 -152l-377 195l112 182z" />
    <glyph glyph-name="uacute" unicode="&#xfa;" horiz-adv-x="1292" 
d="M1255 14q-192 -23 -409 -16q0 116 12 182l-4 2q-48 -94 -137 -149.5t-209 -55.5q-83 0 -143.5 25.5t-94.5 71.5t-49.5 102.5t-15.5 126.5v514q-95 15 -168 21v166q189 22 428 16v-653q0 -84 28 -127t97 -43q99 0 168 97t69 232v293q-108 16 -149 19v168q201 20 412 14
v-819q97 -16 165 -21v-166zM948 1348l-377 -195l-90 150l359 225z" />
    <glyph glyph-name="ucircumflex" unicode="&#xfb;" horiz-adv-x="1292" 
d="M1255 14q-192 -23 -409 -16q0 116 12 182l-4 2q-48 -94 -137 -149.5t-209 -55.5q-83 0 -143.5 25.5t-94.5 71.5t-49.5 102.5t-15.5 126.5v514q-95 15 -168 21v166q189 22 428 16v-653q0 -84 28 -127t97 -43q99 0 168 97t69 232v293q-108 16 -149 19v168q201 20 412 14
v-819q97 -16 165 -21v-166zM938 1319l-84 -154l-231 129l-228 -129l-78 152l308 180z" />
    <glyph glyph-name="udieresis" unicode="&#xfc;" horiz-adv-x="1292" 
d="M1255 14q-192 -23 -409 -16q0 116 12 182l-4 2q-48 -94 -137 -149.5t-209 -55.5q-83 0 -143.5 25.5t-94.5 71.5t-49.5 102.5t-15.5 126.5v514q-95 15 -168 21v166q189 22 428 16v-653q0 -84 28 -127t97 -43q99 0 168 97t69 232v293q-108 16 -149 19v168q201 20 412 14
v-819q97 -16 165 -21v-166zM977 1327q0 -59 -41.5 -100t-99.5 -41q-59 0 -100.5 41.5t-41.5 99.5q0 60 41.5 100.5t100.5 40.5t100 -40.5t41 -100.5zM563 1327q0 -59 -41.5 -100t-99.5 -41t-99.5 41t-41.5 100q0 60 41 100.5t100 40.5t100 -40.5t41 -100.5z" />
    <glyph glyph-name="yacute" unicode="&#xfd;" horiz-adv-x="1159" 
d="M918 1348l-377 -195l-90 150l356 225zM1143 850q-53 -15 -111 -21l-323 -935q-78 -228 -182.5 -317t-282.5 -89q-80 0 -158 16l14 226q76 -23 146 -23t118.5 43t86.5 152l34 98h-75l-283 829q-63 6 -111 21v168h490v-168q-59 -14 -103 -19l103 -290q37 -106 80 -273h2
q39 162 88 301l90 262q-43 5 -102 19v168h479v-168z" />
    <glyph glyph-name="thorn" unicode="&#xfe;" horiz-adv-x="1183" 
d="M1116 563q0 -267 -138 -422t-398 -155q-74 0 -131 8v-297q70 -5 178 -25v-166h-619v166q108 20 178 25v1597q-94 15 -178 21v164q199 24 441 18v-420q0 -130 -13 -209h4q40 78 117.5 124t185.5 46q180 0 276.5 -124t96.5 -351zM840 535q0 288 -174 288q-99 0 -158 -98.5
t-59 -235.5v-282q62 -19 135 -19q120 0 188 83.5t68 263.5z" />
    <glyph glyph-name="ydieresis" unicode="&#xff;" horiz-adv-x="1159" 
d="M1143 850q-53 -15 -111 -21l-323 -935q-78 -228 -182.5 -317t-282.5 -89q-80 0 -158 16l14 226q76 -23 146 -23t118.5 43t86.5 152l34 98h-75l-283 829q-63 6 -111 21v168h490v-168q-59 -14 -103 -19l103 -290q37 -106 80 -273h2q39 162 88 301l90 262q-43 5 -102 19v168
h479v-168zM909 1327q0 -59 -41.5 -100t-99.5 -41t-99.5 41t-41.5 100q0 60 41 100.5t100 40.5t100 -40.5t41 -100.5zM496 1327q0 -58 -41.5 -99.5t-100.5 -41.5q-58 0 -99.5 41t-41.5 100q0 60 41 100.5t100 40.5t100.5 -40.5t41.5 -100.5z" />
    <glyph glyph-name="dotlessi" unicode="&#x131;" horiz-adv-x="696" 
d="M657 0h-604v166q100 19 178 24v627q-94 15 -178 21v163q203 25 439 19v-830q72 -5 165 -24v-166z" />
    <glyph glyph-name="Lslash" unicode="&#x141;" horiz-adv-x="1009" 
d="M987 0h-930v166q100 19 179 24v347l-146 -48l-37 199l183 57v447q-71 5 -179 25v165h623v-165q-108 -20 -178 -25v-373l209 66l37 -201l-246 -76v-389h264q3 21 27 170h194v-389z" />
    <glyph glyph-name="lslash" unicode="&#x142;" horiz-adv-x="694" 
d="M666 676l-183 -58v-428q78 -5 166 -24v-166h-604v166q100 19 178 24v359l-160 -51l-22 198l182 58v540q-94 15 -178 21v164q196 24 438 18v-672l162 52z" />
    <glyph glyph-name="OE" unicode="&#x152;" horiz-adv-x="1701" 
d="M1595 0h-591q-60 0 -161.5 -8t-158.5 -8q-154 0 -272 50t-192.5 142t-112 218t-37.5 282q0 163 51.5 299.5t140 227.5t207 141.5t252.5 50.5q49 0 139 -6.5t133 -6.5h594v-348h-198q-18 92 -23 140h-276v-369h225q12 78 22 113h170v-416h-170q-16 56 -22 112h-225v-399
h282q2 28 11.5 82t11.5 65h200v-362zM823 231v920q-47 8 -108 8q-158 0 -262.5 -125t-104.5 -336q0 -222 90.5 -349.5t276.5 -127.5q60 0 108 10z" />
    <glyph glyph-name="oe" unicode="&#x153;" horiz-adv-x="1759" 
d="M1681 586q0 -33 -8 -119h-631q-3 -283 279 -283q161 0 301 64l23 -203q-165 -65 -365 -65q-272 0 -387 165q-57 -76 -148 -120.5t-208 -44.5q-230 0 -349.5 132.5t-119.5 387.5q0 241 141.5 389.5t368.5 148.5q110 0 200.5 -37.5t145.5 -111.5q121 151 329 151
q108 0 191.5 -35t134.5 -97.5t76.5 -143.5t25.5 -178zM1421 645q3 95 -44.5 149t-131.5 54q-81 0 -135 -55.5t-66 -147.5h377zM788 514q0 156 -55.5 232.5t-175.5 76.5q-45 0 -84.5 -16.5t-74 -51.5t-54.5 -97.5t-20 -145.5q0 -315 233 -315q103 0 167 82t64 235z" />
    <glyph glyph-name="Scaron" unicode="&#x160;" horiz-adv-x="1030" 
d="M854 1659l-307 -182l-314 178l82 155l234 -131l227 131zM963 428q0 -198 -147 -324.5t-392 -126.5q-172 0 -315 35v369h202q19 -109 23 -162q48 -10 96 -10q113 0 180.5 45.5t67.5 136.5q0 42 -20.5 74.5t-55 54.5t-79.5 40.5t-94.5 37t-99 39t-94.5 51.5t-79.5 70
t-55 98t-20.5 133q0 188 138 302t380 114q142 0 291 -31v-354h-203q-16 83 -22 158q-48 6 -72 6q-113 0 -171.5 -45.5t-58.5 -122.5q0 -39 20.5 -70.5t55.5 -54t80 -41.5t94.5 -38.5t99.5 -41t95 -52.5t80 -69t55.5 -95t20.5 -126z" />
    <glyph glyph-name="scaron" unicode="&#x161;" horiz-adv-x="901" 
d="M778 1339l-307 -180l-313 176l84 156l231 -131l227 131zM825 328q0 -152 -125.5 -250t-334.5 -98q-136 0 -267 28v305h166q14 -59 21 -133q48 -10 102 -10q79 0 127.5 32.5t48.5 88.5q0 36 -27 61.5t-70.5 41.5t-95.5 31t-104.5 36.5t-96 51t-70.5 80.5t-27 120
q0 144 114 234.5t324 90.5q126 0 264 -30v-293h-166q-13 52 -20 131q-48 10 -92 10q-81 0 -121.5 -30t-40.5 -83q0 -36 27 -62.5t70.5 -43t95.5 -32.5t104.5 -37t96 -49.5t70.5 -77t27 -113.5z" />
    <glyph glyph-name="Ydieresis" unicode="&#x178;" horiz-adv-x="1251" 
d="M1237 1214q-64 -15 -109 -18l-372 -725v-281q78 -5 178 -24v-166h-623v166q100 19 178 24v281l-366 725q-50 3 -107 18v168h527v-168q-52 -13 -121 -20l125 -272q59 -129 82 -191h6q29 72 88 197l127 266q-75 7 -123 20v168h510v-168zM952 1628q0 -58 -41 -99.5
t-100 -41.5t-100 41.5t-41 99.5q0 60 41 100.5t100 40.5t100 -40.5t41 -100.5zM539 1628q0 -58 -41.5 -99.5t-100.5 -41.5t-100 41.5t-41 99.5q0 60 41 100.5t100 40.5t100.5 -40.5t41.5 -100.5z" />
    <glyph glyph-name="Zcaron" unicode="&#x17d;" horiz-adv-x="1099" 
d="M883 1659l-308 -182l-313 178l84 155l232 -131l227 131zM1018 0h-934v205l528 827q51 83 88 131q-98 -4 -202 -4h-176q-7 -73 -21 -153h-205v376h918v-213l-555 -847q-12 -17 -32.5 -48.5t-31.5 -48.5q33 4 223 4h177q3 21 6.5 47t8 60t7.5 55h201v-391z" />
    <glyph glyph-name="zcaron" unicode="&#x17e;" horiz-adv-x="937" 
d="M782 1339l-307 -180l-313 176l84 156l231 -131l228 131zM856 0h-778v193l473 632q-78 -4 -182 -4h-93q-8 -58 -20 -125h-172v322h760v-193l-465 -618q43 2 182 2h105q7 70 20 129h170v-338z" />
    <glyph glyph-name="florin" unicode="&#x192;" horiz-adv-x="872" 
d="M522 680l-55 -619q-18 -191 -66 -300t-132 -155t-222 -46q-59 0 -133 12l14 219q50 -12 111 -12q80 0 115.5 53.5t46.5 175.5l59 672h-166v203h182l17 184q23 237 119 343t295 106q55 0 135 -13l-17 -215q-62 15 -110 15q-74 0 -112 -49.5t-48 -166.5l-18 -204h217v-203
h-232z" />
    <glyph glyph-name="circumflex" unicode="&#x2c6;" horiz-adv-x="872" 
d="M748 1319l-84 -154l-232 129l-227 -129l-78 152l307 180z" />
    <glyph glyph-name="caron" unicode="&#x2c7;" horiz-adv-x="872" 
d="M739 1339l-307 -180l-313 176l84 156l231 -131l228 131z" />
    <glyph glyph-name="breve" unicode="&#x2d8;" horiz-adv-x="763" 
d="M659 1483q0 -64 -16.5 -119.5t-49.5 -99.5t-88.5 -69.5t-127.5 -25.5t-127 26t-87 70.5t-47.5 99.5t-15.5 118h174q0 -55 27 -88t78 -33q50 0 78 31t28 90h174z" />
    <glyph glyph-name="dotaccent" unicode="&#x2d9;" horiz-adv-x="587" 
d="M455 1341q0 -64 -48 -109.5t-114 -45.5q-65 0 -112.5 45.5t-47.5 109.5q0 63 47.5 109.5t112.5 46.5q64 0 113 -46t49 -110z" />
    <glyph glyph-name="ring" unicode="&#x2da;" horiz-adv-x="747" 
d="M635 1321q0 -105 -76 -177.5t-184 -72.5q-110 0 -185 71t-75 179q0 106 76 177t184 71q110 0 185 -71t75 -177zM481 1321q0 45 -31 77t-75 32t-76.5 -32.5t-32.5 -76.5t32.5 -76.5t76.5 -32.5t75 32t31 77z" />
    <glyph glyph-name="ogonek" unicode="&#x2db;" horiz-adv-x="581" 
d="M496 -453q-70 -22 -168 -22q-117 0 -168 51t-51 148q0 128 90 276h194q-63 -130 -63 -223q0 -37 14 -57t51 -27t101 10v-156z" />
    <glyph glyph-name="tilde" unicode="&#x2dc;" horiz-adv-x="956" 
d="M852 1266q-37 -34 -96.5 -60t-114.5 -26q-53 0 -98 15.5t-72 34.5t-65.5 34.5t-79.5 15.5q-72 0 -140 -68l-51 174q99 89 211 89q49 0 93 -16t71.5 -34.5t66.5 -34.5t78 -16q80 0 146 66z" />
    <glyph glyph-name="hungarumlaut" unicode="&#x2dd;" horiz-adv-x="1079" 
d="M995 1370l-372 -219l-103 143l350 250zM547 1444l-305 -293l-136 115l281 317z" />
    <glyph glyph-name="Delta" unicode="&#x394;" horiz-adv-x="1540" 
d="M1487 0h-1434l586 1434h260zM1100 240l-342 858l-338 -858h680z" />
    <glyph glyph-name="Delta" unicode="&#x2206;" horiz-adv-x="1540" 
d="M1487 0h-1434l586 1434h260zM1100 240l-342 858l-338 -858h680z" />
    <glyph glyph-name="Omega" unicode="&#x3a9;" horiz-adv-x="1533" 
d="M1405 0h-526v186q121 77 188.5 212.5t67.5 318.5q0 210 -97 343.5t-270 133.5q-171 0 -276 -130.5t-105 -338.5q0 -192 62.5 -320t199.5 -217v-188h-528v197h262q-122 83 -187 219t-65 307q0 195 79.5 350t228.5 244.5t343 89.5q276 0 446.5 -175.5t170.5 -488.5
q0 -173 -71.5 -319.5t-192.5 -226.5h270v-197z" />
    <glyph glyph-name="Omega" unicode="&#x2126;" horiz-adv-x="1533" 
d="M1405 0h-526v186q121 77 188.5 212.5t67.5 318.5q0 210 -97 343.5t-270 133.5q-171 0 -276 -130.5t-105 -338.5q0 -192 62.5 -320t199.5 -217v-188h-528v197h262q-122 83 -187 219t-65 307q0 195 79.5 350t228.5 244.5t343 89.5q276 0 446.5 -175.5t170.5 -488.5
q0 -173 -71.5 -319.5t-192.5 -226.5h270v-197z" />
    <glyph glyph-name="pi" unicode="&#x3c0;" horiz-adv-x="1370" 
d="M1280 0q-113 -23 -219 -23q-131 0 -186.5 66t-55.5 207v555h-295v-805h-243v805h-201v213h1182v-213h-199v-408q0 -103 9 -150.5t29 -63t64 -15.5q52 0 99 14z" />
    <glyph glyph-name="endash" unicode="&#x2013;" horiz-adv-x="1024" 
d="M1024 477h-1024v230h1024v-230z" />
    <glyph glyph-name="emdash" unicode="&#x2014;" horiz-adv-x="2048" 
d="M2048 477h-2048v230h2048v-230z" />
    <glyph glyph-name="quoteleft" unicode="&#x2018;" horiz-adv-x="546" 
d="M365 1548l106 -96q-68 -73 -97 -131.5t-24.5 -101t37.5 -82.5q29 -33 34 -76.5t-11 -81.5t-54.5 -64t-89.5 -26q-87 0 -134 76q-57 93 -16 233q53 179 249 350z" />
    <glyph glyph-name="quoteright" unicode="&#x2019;" horiz-adv-x="546" 
d="M180 870l-106 97q68 74 97 132t24 101t-39 82q-28 33 -32.5 76.5t11.5 81.5t54.5 64t89.5 26q87 0 134 -76q57 -94 15 -235q-53 -178 -248 -349z" />
    <glyph glyph-name="quotesinglbase" unicode="&#x201a;" horiz-adv-x="546" 
d="M180 -354l-106 96q68 74 97 131.5t24 100t-39 81.5q-28 34 -32.5 78t11.5 81.5t54.5 64t89.5 26.5q87 0 134 -76q57 -94 15 -235q-54 -178 -248 -348z" />
    <glyph glyph-name="quotedblleft" unicode="&#x201c;" horiz-adv-x="993" 
d="M920 1452q-68 -73 -97 -131.5t-24.5 -101t37.5 -82.5q28 -33 32.5 -76.5t-11 -81.5t-53.5 -64t-89 -26q-89 0 -136 77q-57 94 -15 235q53 177 247 347zM471 1452q-68 -73 -97 -131.5t-24.5 -101t37.5 -82.5q29 -33 34 -76.5t-11 -81.5t-54.5 -64t-89.5 -26q-87 0 -134 76
q-57 93 -16 233q53 179 249 350z" />
    <glyph glyph-name="quotedblright" unicode="&#x201d;" horiz-adv-x="993" 
d="M180 870l-106 97q68 74 97 132t24 101t-39 82q-28 33 -32.5 76.5t11.5 81.5t54.5 64t89.5 26q87 0 134 -76q57 -94 15 -235q-53 -178 -248 -349zM629 870l-109 97q68 73 97 131.5t24.5 101t-37.5 82.5q-28 33 -32.5 76.5t11 81.5t53.5 64t89 26q89 0 136 -77
q57 -94 15 -235q-53 -178 -247 -348z" />
    <glyph glyph-name="quotedblbase" unicode="&#x201e;" horiz-adv-x="993" 
d="M180 -354l-106 96q68 74 97 131.5t24 100t-39 81.5q-28 34 -32.5 78t11.5 81.5t54.5 64t89.5 26.5q87 0 134 -76q57 -94 15 -235q-54 -178 -248 -348zM629 -354l-109 96q68 74 97 131.5t24.5 99.5t-37.5 82q-28 34 -32.5 78t11 81.5t53.5 64t89 26.5q89 0 136 -77
q57 -94 15 -235q-53 -177 -247 -347z" />
    <glyph glyph-name="dagger" unicode="&#x2020;" horiz-adv-x="976" 
d="M901 928h-307l49 -273l-55 -665h-197l-57 665l51 273h-307v202h307l-51 365h309l-49 -365h307v-202z" />
    <glyph glyph-name="daggerdbl" unicode="&#x2021;" horiz-adv-x="976" 
d="M899 354h-303l49 -354h-313l49 354h-303v203h303l-47 197l47 198h-303v203h303l-47 340h309l-47 -340h305v-203h-305l47 -198l-47 -197h303v-203z" />
    <glyph glyph-name="bullet" unicode="&#x2022;" horiz-adv-x="878" 
d="M432 907q124 0 213.5 -89.5t89.5 -213.5q0 -126 -89 -214.5t-214 -88.5q-126 0 -214.5 88.5t-88.5 214.5q0 125 88.5 214t214.5 89z" />
    <glyph glyph-name="ellipsis" unicode="&#x2026;" horiz-adv-x="1527" 
d="M264 311q69 0 117.5 -49.5t48.5 -118.5t-48.5 -118.5t-117.5 -49.5t-118.5 49.5t-49.5 118.5t49.5 118.5t118.5 49.5zM758 311q69 0 118.5 -49.5t49.5 -118.5t-49.5 -118.5t-118.5 -49.5t-117.5 49.5t-48.5 118.5t48.5 118.5t117.5 49.5zM1253 311q68 0 117 -49.5
t49 -118.5t-49 -118.5t-117 -49.5q-69 0 -118.5 49.5t-49.5 118.5t49.5 118.5t118.5 49.5z" />
    <glyph glyph-name="perthousand" unicode="&#x2030;" horiz-adv-x="2256" 
d="M715 1092q0 -166 -96.5 -267.5t-235.5 -101.5q-144 0 -226.5 88t-82.5 254q0 163 95.5 261.5t231.5 98.5q143 0 228.5 -81.5t85.5 -251.5zM502 1077q0 93 -24 130.5t-83 37.5q-48 0 -78 -46t-30 -124q0 -91 25 -130.5t79 -39.5q53 0 82 44.5t29 127.5zM1460 324
q0 -165 -97 -266t-235 -101q-145 0 -227 87t-82 253q0 163 95.5 262.5t232.5 99.5q142 0 227.5 -82.5t85.5 -252.5zM1247 311q0 91 -24 128.5t-82 37.5q-50 0 -79.5 -44.5t-29.5 -123.5q0 -91 25 -131.5t80 -40.5q53 0 81.5 45t28.5 129zM2169 324q0 -165 -96 -266
t-236 -101q-144 0 -225.5 87t-81.5 253q0 163 94.5 262.5t230.5 99.5q142 0 228 -82.5t86 -252.5zM1956 311q0 91 -24.5 128.5t-80.5 37.5q-51 0 -79.5 -44.5t-28.5 -123.5q0 -91 25 -131.5t79 -40.5q52 0 80.5 45t28.5 129zM1354 1300l-987 -1353l-189 135l987 1354z" />
    <glyph glyph-name="guilsinglleft" unicode="&#x2039;" horiz-adv-x="638" 
d="M520 809l-186 -301l188 -295l-209 -98l-229 393l235 399z" />
    <glyph glyph-name="guilsinglright" unicode="&#x203a;" horiz-adv-x="638" 
d="M557 512l-238 -397l-200 96l186 301l-188 295l209 100z" />
    <glyph glyph-name="fraction" unicode="&#x2044;" horiz-adv-x="890" 
d="M1034 1464l-862 -1726l-217 96l864 1727z" />
    <glyph glyph-name="fraction" unicode="&#x2215;" horiz-adv-x="890" 
d="M1034 1464l-862 -1726l-217 96l864 1727z" />
    <glyph glyph-name="Euro" unicode="&#x20ac;" horiz-adv-x="1126" 
d="M1038 33q-142 -56 -342 -56q-215 0 -345.5 113.5t-170.5 339.5h-155v150h139q-2 25 -2 77v66h-137v147h153q42 253 186 394t381 141q110 0 277 -29v-350h-164q-21 69 -24 143q-73 13 -121 13q-207 0 -248 -312h348v-147h-358v-31q0 -77 2 -112h356v-150h-338
q26 -122 95 -176.5t198 -54.5q137 0 244 49z" />
    <glyph glyph-name="trademark" unicode="&#x2122;" horiz-adv-x="1759" 
d="M1694 762h-332v110q45 14 65 17l-32 178l-13 80l-18 -70l-88 -315h-184l-86 317l-17 68l-8 -57l-35 -201q47 -9 66 -17v-110h-320v115q9 1 37 6t39 6l74 362q-38 4 -99 17v114h353l73 -270l19 -88l18 82l80 276h356v-114q-60 -12 -98 -17l74 -362q45 -4 76 -10v-117z
M678 1122h-121q-15 98 -16 115h-76v-344q60 -7 108 -21v-110h-401v110q44 14 107 21v344h-76q0 -7 -17 -115h-118v260h610v-260z" />
    <glyph glyph-name="partialdiff" unicode="&#x2202;" horiz-adv-x="1298" 
d="M1171 817q0 -427 -210 -657q-73 -81 -179 -127.5t-223 -46.5q-208 0 -320 116.5t-112 315.5q0 220 140.5 362t367.5 142q89 0 158 -35t108 -96q-13 131 -14 135q-23 176 -136 271t-280 95l37 219q302 -5 482.5 -191t180.5 -503zM848 487q0 96 -57 154.5t-166 58.5
q-105 0 -172.5 -73.5t-67.5 -186.5q0 -111 56.5 -170t154.5 -59q107 0 179.5 78.5t72.5 197.5z" />
    <glyph glyph-name="product" unicode="&#x220f;" horiz-adv-x="1605" 
d="M1520 1274h-197v-1790h-244v1790h-549v-1790h-247v1790h-199v221h1436v-221z" />
    <glyph glyph-name="summation" unicode="&#x2211;" horiz-adv-x="1243" 
d="M1143 -516h-1057v203l584 823l-559 780v205h1001v-221h-682l541 -756l-582 -805h754v-229z" />
    <glyph glyph-name="minus" unicode="&#x2212;" horiz-adv-x="1126" 
d="M973 446h-819v228h819v-228z" />
    <glyph glyph-name="radical" unicode="&#x221a;" horiz-adv-x="1261" 
d="M1239 1552l-475 -1552h-303l-277 821h-178v197h393l164 -529q41 -128 55 -198h3q14 70 43 188l288 1073h287z" />
    <glyph glyph-name="infinity" unicode="&#x221e;" horiz-adv-x="2015" 
d="M1925 569q0 -80 -28 -150t-80.5 -123.5t-133.5 -84.5t-180 -31q-111 0 -233.5 55.5t-270.5 165.5q-138 -102 -261.5 -161.5t-252.5 -59.5q-189 0 -292 104.5t-103 262.5q0 169 114.5 278t297.5 109q119 0 243.5 -56.5t268.5 -166.5q293 223 510 223q187 0 294 -102.5
t107 -262.5zM1675 559q0 66 -42.5 107t-116.5 41q-111 0 -306 -146q103 -77 175.5 -114t130.5 -37q75 0 117 43t42 106zM803 553q-104 79 -174.5 116.5t-128.5 37.5q-75 0 -116.5 -43.5t-41.5 -106.5q0 -64 43 -105.5t117 -41.5q106 0 301 143z" />
    <glyph glyph-name="integral" unicode="&#x222b;" horiz-adv-x="706" 
d="M649 1274q-50 12 -88 12q-44 0 -68 -21t-36.5 -79t-12.5 -168q0 -154 13.5 -473t13.5 -529q0 -291 -81 -419.5t-255 -128.5q-54 0 -112 14v225q41 -12 83 -12q47 0 72 20t38 77.5t13 168.5q0 147 -13 465t-13 535q0 289 87 419.5t257 130.5q55 0 102 -12v-225z" />
    <glyph glyph-name="approxequal" unicode="&#x2248;" horiz-adv-x="1228" 
d="M1094 674q-131 -131 -285 -131q-58 0 -113 18.5t-91.5 41t-89 41t-105.5 18.5q-97 0 -203 -87l-82 175q61 58 138 94.5t155 36.5q61 0 120 -19t97.5 -41.5t87 -41.5t90.5 -19q98 0 195 90zM1096 262q-60 -54 -138 -88.5t-151 -34.5q-62 0 -120 18.5t-94.5 41t-85.5 41
t-97 18.5q-95 0 -199 -86l-86 174q142 131 281 131q62 0 119.5 -19t94.5 -41.5t90 -41.5t107 -19q107 0 195 82z" />
    <glyph glyph-name="notequal" unicode="&#x2260;" horiz-adv-x="1304" 
d="M1151 217h-500l-98 -248h-236l99 248h-264v211h346l71 180h-417v211h499l101 248h233l-98 -248h264v-211h-348l-72 -180h420v-211z" />
    <glyph glyph-name="lessequal" unicode="&#x2264;" horiz-adv-x="1075" 
d="M938 317l-164 -182l-682 527l680 526l166 -178l-496 -346zM956 -162h-827v219h827v-219z" />
    <glyph glyph-name="greaterequal" unicode="&#x2265;" horiz-adv-x="1075" 
d="M985 662l-680 -527l-166 178l496 346l-496 347l164 182zM948 -162h-829v219h829v-219z" />
    <glyph glyph-name="lozenge" unicode="&#x25ca;" horiz-adv-x="1282" 
d="M1237 688l-510 -706h-164l-518 712l514 707h160zM950 678l-319 438l-297 -416l315 -436z" />
    <glyph glyph-name="apple" unicode="&#xf000;" horiz-adv-x="4020" 
d="M428 985l465 -45q-10 -92 0 -184l-465 -43q-15 133 0 272zM805 1864q91 110 190 188l297 -356q-72 -62 -127 -129zM2103 1942q-93 9 -182 0l-45 458q119 14 268 0zM2732 1698l291 352q109 -88 188 -188l-350 -291q-66 80 -129 127zM3592 983q12 -138 0 -270l-457 45
q10 88 0 182zM2810 848q0 -154 -56 -295t-151 -242v-250l-51 -14l100 -235l-96 -27l96 -227l-100 -27l31 -76l-97 -223h-176q-12 -64 -97 -107t-204 -43q-120 0 -204 43t-93 107h-178l-170 408l98 26l-100 236l108 28l-57 140v245q-95 106 -150 244t-55 289
q0 217 107.5 401.5t292 292t401.5 107.5t401.5 -107.5t292 -292t107.5 -401.5zM1624 401h158l-47 404q-26 -5 -47.5 -12t-44.5 -16t-29 -11q-29 -11 -44.5 34t-9.5 97t29 59q216 64 420 64q208 0 424 -64q23 -6 29.5 -57.5t-9.5 -96.5t-47 -34q-77 26 -125 37l-43 -404h156
q92 78 149.5 194.5t57.5 252.5q0 160 -79.5 296.5t-216 216t-296.5 79.5t-296 -79.5t-215 -216t-79 -296.5q0 -129 54.5 -247t150.5 -200zM2132 829q-53 9 -123 9t-125 -9l45 -428h162zM2390 233h-764v-149l45 -107l719 185v71zM2394 -100l-41 100l-733 -186l41 -101z
M2396 -358l-41 96l-733 -189l72 -176h630l37 86l-12 31l-219 -53l-47 125zM1980 918v2h-4v12h-2v-14h6zM1993 928h-2v-8q0 -2 -2 -2t-2 2v8h-2v-8q0 -3 4 -3t4 3v8zM2003 918v2q-5 -3 -5 3t5 3v2q-6 2 -7 -4t3 -7q2 -1 4 1zM2009 913h2q-3 11 0 21h-2q-3 -10 0 -21z
M2021 920v-2h2v8q0 6 -8 2v-2q6 3 6 -2q-6 0 -6 -4q0 -3 2.5 -3t3.5 3zM2021 922q-1 -3 -4 -2q0 2 4 2zM2036 922q0 2 -3 2.5t-3 1.5q0 2 6 2v2q-8 0 -8 -4q0 -2 3 -2.5t3 -1.5q0 -2 -6 -2v-2q8 0 8 4zM2042 913q3 11 0 21h-2q3 -10 0 -21h2z" />
    <glyph glyph-name="apple" unicode="&#xf8ff;" horiz-adv-x="4020" 
d="M428 985l465 -45q-10 -92 0 -184l-465 -43q-15 133 0 272zM805 1864q91 110 190 188l297 -356q-72 -62 -127 -129zM2103 1942q-93 9 -182 0l-45 458q119 14 268 0zM2732 1698l291 352q109 -88 188 -188l-350 -291q-66 80 -129 127zM3592 983q12 -138 0 -270l-457 45
q10 88 0 182zM2810 848q0 -154 -56 -295t-151 -242v-250l-51 -14l100 -235l-96 -27l96 -227l-100 -27l31 -76l-97 -223h-176q-12 -64 -97 -107t-204 -43q-120 0 -204 43t-93 107h-178l-170 408l98 26l-100 236l108 28l-57 140v245q-95 106 -150 244t-55 289
q0 217 107.5 401.5t292 292t401.5 107.5t401.5 -107.5t292 -292t107.5 -401.5zM1624 401h158l-47 404q-26 -5 -47.5 -12t-44.5 -16t-29 -11q-29 -11 -44.5 34t-9.5 97t29 59q216 64 420 64q208 0 424 -64q23 -6 29.5 -57.5t-9.5 -96.5t-47 -34q-77 26 -125 37l-43 -404h156
q92 78 149.5 194.5t57.5 252.5q0 160 -79.5 296.5t-216 216t-296.5 79.5t-296 -79.5t-215 -216t-79 -296.5q0 -129 54.5 -247t150.5 -200zM2132 829q-53 9 -123 9t-125 -9l45 -428h162zM2390 233h-764v-149l45 -107l719 185v71zM2394 -100l-41 100l-733 -186l41 -101z
M2396 -358l-41 96l-733 -189l72 -176h630l37 86l-12 31l-219 -53l-47 125zM1980 918v2h-4v12h-2v-14h6zM1993 928h-2v-8q0 -2 -2 -2t-2 2v8h-2v-8q0 -3 4 -3t4 3v8zM2003 918v2q-5 -3 -5 3t5 3v2q-6 2 -7 -4t3 -7q2 -1 4 1zM2009 913h2q-3 11 0 21h-2q-3 -10 0 -21z
M2021 920v-2h2v8q0 6 -8 2v-2q6 3 6 -2q-6 0 -6 -4q0 -3 2.5 -3t3.5 3zM2021 922q-1 -3 -4 -2q0 2 4 2zM2036 922q0 2 -3 2.5t-3 1.5q0 2 6 2v2q-8 0 -8 -4q0 -2 3 -2.5t3 -1.5q0 -2 -6 -2v-2q8 0 8 4zM2042 913q3 11 0 21h-2q3 -10 0 -21h2z" />
    <glyph glyph-name="f_b" horiz-adv-x="1912" 
d="M496 190q66 -5 161 -24v-166h-602v166q100 19 178 24v625h-204v203h204v74q0 214 131.5 316.5t426.5 102.5q183 0 383 -32v-422q0 -109 -17 -199h2q38 84 120 132t187 48q182 0 278.5 -125t96.5 -352q0 -262 -145.5 -421.5t-401.5 -159.5q-209 0 -383 49v1259
q-83 12 -168 12q-129 0 -188 -50.5t-59 -162.5v-69h227v-203h-227v-625zM1565 535q0 286 -174 286q-65 0 -115.5 -46.5t-76 -120.5t-25.5 -160v-287q59 -19 135 -19q120 0 188 83.5t68 263.5z" />
    <glyph glyph-name="f_h" horiz-adv-x="2000" 
d="M1964 0h-426v651q0 84 -29 127t-98 43q-99 0 -167 -97t-68 -232v-302q92 -8 149 -22v-168h-557v166q87 19 145 24v1098q-80 12 -159 12q-135 0 -196.5 -53.5t-61.5 -163.5v-65h241v-203h-241v-625q58 -5 145 -24v-166h-586v166q100 19 178 24v625h-204v203h204v74
q0 214 132 316.5t428 102.5q180 0 383 -32v-420q0 -127 -19 -207l2 -2q45 89 132 139.5t204 50.5q83 0 143.5 -25t94.5 -71t49.5 -102.5t15.5 -126.5v-525q81 -6 166 -24v-166z" />
    <glyph glyph-name="f_k" horiz-adv-x="1929" 
d="M1890 0h-342l-372 516v-326q84 -7 127 -22v-168h-535v166q87 19 145 24v1098q-80 12 -159 12q-135 0 -196.5 -53.5t-61.5 -163.5v-65h241v-203h-241v-625q58 -5 145 -24v-166h-586v166q100 19 178 24v625h-204v203h204v74q0 214 132 316.5t428 102.5q180 0 383 -32v-922
l233 274q-59 6 -96 19v168h549v-168q-65 -17 -136 -23l-258 -278l277 -356q53 -5 145 -23v-170z" />
    <glyph glyph-name="g.alt" horiz-adv-x="1136" 
d="M999 -33q0 -76 -14.5 -141.5t-53.5 -129t-100.5 -107.5t-161.5 -71.5t-231 -27.5q-162 0 -311 39l20 244q154 -60 304 -60q149 0 220.5 59t71.5 195v53q0 90 11 148h-4q-40 -88 -120 -138t-181 -50q-183 0 -280 122t-97 353q0 264 146 422.5t409 158.5q187 0 372 -30
v-1039zM739 532v281q-60 14 -137 14q-256 0 -256 -344q0 -286 174 -286q99 0 159 98t60 237z" />
    </font>
</defs>
</svg>
